<svg width="136" height="34" viewBox="0 0 136 34" fill="none" xmlns="http://www.w3.org/2000/svg">
<path d="M17.4475 8.37971C17.4475 8.37971 19.3559 2.41919 26.6886 5.67871C26.6886 5.67871 23.2878 11.7793 17.4475 8.37971Z" fill="#8DB511"/>
<path d="M23.0205 15.3362C23.0205 19.9788 19.2535 23.7424 14.6067 23.7424C9.95987 23.7424 6.19287 19.9788 6.19287 15.3362C6.19287 10.6935 9.95987 6.92993 14.6067 6.92993C19.2535 6.92993 23.0205 10.6935 23.0205 15.3362Z" fill="#F8B42E"/>
<path d="M13.6655 10.8957C13.2305 11.4094 12.4611 11.4735 11.947 11.0389C11.4328 10.6043 11.3686 9.83563 11.8036 9.32195C12.2386 8.80827 13.008 8.74414 13.5221 9.17871C14.0363 9.61329 14.1005 10.382 13.6655 10.8957Z" fill="white"/>
<path fill-rule="evenodd" clip-rule="evenodd" d="M10.8137 19.5872C10.2932 19.9349 9.58907 19.7951 9.24094 19.2749C8.55407 18.2485 8.16025 17.0543 8.1033 15.8224C8.04634 14.5905 8.32852 13.3679 8.92043 12.289C9.22139 11.7404 9.91049 11.5396 10.4596 11.8405C11.0087 12.1414 11.2098 12.83 10.9089 13.3786C10.5181 14.0909 10.3306 14.9004 10.3684 15.7186C10.4063 16.5369 10.668 17.3319 11.1257 18.0158C11.4739 18.536 11.3342 19.2395 10.8137 19.5872Z" fill="white"/>
<path fill-rule="evenodd" clip-rule="evenodd" d="M28.1546 21.1084C28.5942 20.0638 27.9263 18.9334 26.8302 18.6455C25.7356 18.3581 24.6324 19.0252 24.1374 20.0429C23.569 21.2118 22.7859 22.271 21.8229 23.1628C20.3558 24.5215 18.5316 25.4355 16.5634 25.7981C14.5953 26.1607 12.5643 25.9569 10.7079 25.2106C8.85138 24.4642 7.24601 23.2061 6.07925 21.5832C4.91249 19.9603 4.23251 18.0395 4.11872 16.0453C4.00494 14.0511 4.46205 12.0657 5.43667 10.3211C6.41129 8.57651 7.86318 7.14466 9.62276 6.19281C10.7795 5.56709 12.0378 5.16578 13.3315 5.00324C14.4528 4.86235 15.4368 4.03186 15.5146 2.90437C15.5925 1.77644 14.7377 0.784121 13.6099 0.864148C11.5363 1.01129 9.50956 1.59792 7.6682 2.594C5.22434 3.91601 3.20782 5.90469 1.85418 8.32777C0.500544 10.7508 -0.134336 13.5083 0.0236964 16.278C0.181729 19.0478 1.12615 21.7155 2.74665 23.9695C4.36715 26.2236 6.59683 27.971 9.17526 29.0076C11.7537 30.0442 14.5744 30.3272 17.308 29.8236C18.2839 29.6438 19.2344 29.3664 20.1458 28.9981L21.9705 31.9108C22.7384 33.1365 24.355 33.5085 25.5813 32.7416C26.8076 31.9748 27.1793 30.3595 26.4114 29.1338L24.5734 26.1999C24.5866 26.1878 24.5997 26.1756 24.6129 26.1635C26.146 24.7437 27.3507 23.0184 28.1546 21.1084Z" fill="#8DB511"/>
<path d="M34.2148 9.71893C34.2148 9.43797 34.2209 9.2303 34.2332 9.09592C34.2578 8.94933 34.3192 8.78442 34.4176 8.60118C34.5896 8.27136 35.0689 8.10645 35.8555 8.10645C36.7157 8.10645 37.2258 8.33244 37.3855 8.78442C37.447 8.99209 37.4777 9.3097 37.4777 9.73725V19.9252C37.4777 20.2184 37.4654 20.4322 37.4408 20.5666C37.4285 20.7009 37.3732 20.8598 37.2749 21.043C37.1029 21.3728 36.6236 21.5377 35.837 21.5377C34.9767 21.5377 34.4729 21.3056 34.3254 20.8414C34.2517 20.646 34.2148 20.3345 34.2148 19.9069V9.71893Z" fill="#8DB511"/>
<path d="M43.2498 12.4622C44.3986 12.4622 45.3521 12.905 46.1103 13.7907C46.88 14.6649 47.2648 15.7346 47.2648 16.9999V20.0365C47.2648 20.301 47.2533 20.5023 47.2303 20.6404C47.2189 20.7669 47.1729 20.9107 47.0925 21.0717C46.9317 21.3823 46.4836 21.5375 45.7484 21.5375C44.9328 21.5375 44.4618 21.3248 44.3354 20.8992C44.2665 20.7036 44.232 20.4103 44.232 20.0192V16.9826C44.232 16.511 44.0942 16.1429 43.8185 15.8784C43.5543 15.6138 43.1924 15.4815 42.7329 15.4815C42.2849 15.4815 41.9173 15.6196 41.6301 15.8956C41.3544 16.1717 41.2165 16.534 41.2165 16.9826V20.0365C41.2165 20.301 41.205 20.5023 41.1821 20.6404C41.1706 20.7669 41.1189 20.9107 41.027 21.0717C40.8776 21.3823 40.4354 21.5375 39.7001 21.5375C38.9764 21.5375 38.5341 21.3823 38.3733 21.0717C38.2929 20.8992 38.2412 20.7496 38.2182 20.6231C38.2067 20.4851 38.201 20.2838 38.201 20.0192V13.9115C38.201 13.6584 38.2067 13.4686 38.2182 13.3421C38.2412 13.2041 38.2986 13.0545 38.3905 12.8935C38.5514 12.6059 38.9936 12.4622 39.7174 12.4622C40.4181 12.4622 40.8489 12.5944 41.0097 12.859C41.1246 13.0545 41.1821 13.2903 41.1821 13.5664C41.228 13.4859 41.3314 13.3708 41.4922 13.2213C41.6531 13.0718 41.8081 12.951 41.9575 12.859C42.3481 12.5944 42.7788 12.4622 43.2498 12.4622Z" fill="#8DB511"/>
<path d="M54.0721 20.688C53.6305 21.2802 52.9275 21.5763 51.963 21.5763C50.9986 21.5763 50.0922 21.1263 49.2439 20.2261C48.4073 19.3141 47.989 18.254 47.989 17.0459C47.989 15.8378 48.4131 14.7777 49.2614 13.8657C50.1096 12.9537 51.0393 12.4977 52.0502 12.4977C52.4453 12.4977 52.8055 12.5747 53.1309 12.7287C53.4562 12.8708 53.677 13.007 53.7932 13.1373C53.9211 13.2557 54.0198 13.3682 54.0895 13.4748C54.1244 13.1432 54.2406 12.8945 54.4381 12.7287C54.6473 12.551 54.9785 12.4622 55.4317 12.4622C55.8849 12.4622 56.216 12.4977 56.4252 12.5688C56.6344 12.6398 56.7796 12.7642 56.861 12.9419C56.9539 13.1077 57.0062 13.2557 57.0178 13.386C57.0411 13.5163 57.0527 13.7177 57.0527 13.9901V21.3454C57.0527 22.7075 56.5879 23.8031 55.6583 24.6322C54.7287 25.4731 53.6828 25.8936 52.5208 25.8936C51.6377 25.8936 50.7952 25.6745 49.9934 25.2362C49.1916 24.798 48.7907 24.4012 48.7907 24.0459C48.7907 23.584 48.9651 23.1753 49.3137 22.82C49.5344 22.5713 49.7029 22.3995 49.8191 22.3048C49.947 22.21 50.0922 22.1626 50.2549 22.1626C50.4176 22.1626 50.5861 22.2337 50.7604 22.3758C51.3181 22.8141 51.9224 23.0332 52.5731 23.0332C53.0147 23.0332 53.3749 22.8555 53.6538 22.5002C53.9327 22.1449 54.0721 21.7185 54.0721 21.221V20.688ZM50.9695 17.0637C50.9695 17.4427 51.1148 17.7862 51.4053 18.0941C51.7074 18.4021 52.0676 18.5561 52.486 18.5561C52.9159 18.5561 53.2703 18.4021 53.5492 18.0941C53.8281 17.7743 53.9675 17.4309 53.9675 17.0637C53.9675 16.6847 53.8339 16.3353 53.5666 16.0154C53.2994 15.6838 52.9391 15.518 52.486 15.518C52.0328 15.518 51.6667 15.6779 51.3879 15.9977C51.109 16.3175 50.9695 16.6728 50.9695 17.0637Z" fill="#8DB511"/>
<path d="M63.9114 12.6498C64.1285 12.718 64.3055 12.8375 64.4426 13.008C64.5911 13.1673 64.6654 13.4288 64.6654 13.7928C64.6654 14.1567 64.5568 14.5547 64.3398 14.9869C64.1227 15.419 63.8086 15.6351 63.3973 15.6351C63.1917 15.6351 62.9918 15.5896 62.7976 15.4987C62.6148 15.4077 62.3692 15.3622 62.0608 15.3622C61.7523 15.3622 61.461 15.4702 61.1868 15.6863C60.9241 15.9024 60.7927 16.164 60.7927 16.471V20.0534C60.7927 20.315 60.7813 20.514 60.7585 20.6505C60.747 20.7756 60.6956 20.9234 60.6042 21.094C60.4329 21.3897 59.9874 21.5375 59.2677 21.5375C58.7193 21.5375 58.3252 21.4409 58.0853 21.2475C57.9025 21.0883 57.7997 20.8438 57.7769 20.514C57.7769 20.4003 57.7769 20.2354 57.7769 20.0193V14.0316C57.7769 13.77 57.7826 13.5767 57.794 13.4516C57.8168 13.3151 57.8682 13.1673 57.9482 13.008C58.1081 12.701 58.5537 12.5475 59.2848 12.5475C59.9702 12.5475 60.3986 12.6782 60.57 12.9398C60.6956 13.1218 60.7585 13.3094 60.7585 13.5028C60.8156 13.4231 60.8955 13.3265 60.9984 13.2128C61.1126 13.099 61.3468 12.9455 61.7009 12.7522C62.055 12.5588 62.3635 12.4622 62.6262 12.4622C62.9004 12.4622 63.1289 12.4792 63.3117 12.5133C63.4944 12.5361 63.6944 12.5816 63.9114 12.6498Z" fill="#8DB511"/>
<path d="M73.3652 15.954C73.3652 16.6238 73.1933 17.1234 72.8495 17.4528C72.5167 17.7712 72.1452 17.9305 71.7348 17.9305H67.7917C67.7917 18.2379 67.9748 18.496 68.3408 18.7046C68.7068 18.9132 69.0728 19.0175 69.4388 19.0175C70.0821 19.0175 70.5868 18.9516 70.9528 18.8199L71.1358 18.754C71.402 18.6332 71.6239 18.5728 71.8013 18.5728C72.1563 18.5728 72.4613 18.8199 72.7164 19.314C72.8606 19.6105 72.9327 19.863 72.9327 20.0717C72.9327 21.0489 71.7514 21.5375 69.3889 21.5375C68.5681 21.5375 67.8361 21.4003 67.1928 21.1258C66.5606 20.8403 66.067 20.4669 65.7121 20.0058C65.0133 19.1163 64.6639 18.1226 64.6639 17.0246C64.6639 15.641 65.1131 14.5375 66.0116 13.7139C66.9211 12.8794 68.0524 12.4622 69.4056 12.4622C70.9473 12.4622 72.0786 13.0002 72.7996 14.0763C73.1767 14.6473 73.3652 15.2732 73.3652 15.954ZM69.8548 16.4316C70.2762 16.4316 70.487 16.2559 70.487 15.9046C70.487 15.652 70.3872 15.4488 70.1875 15.2951C69.999 15.1414 69.7217 15.0645 69.3556 15.0645C69.0007 15.0645 68.6458 15.2128 68.2909 15.5092C67.9359 15.7947 67.7585 16.1022 67.7585 16.4316H69.8548Z" fill="#8DB511"/>
<path d="M80.324 8.5762C80.4156 8.40222 80.5701 8.28043 80.7875 8.21084C81.005 8.14124 81.2911 8.10645 81.6458 8.10645C82.012 8.10645 82.3039 8.14124 82.5213 8.21084C82.7387 8.28043 82.8875 8.40222 82.9676 8.5762C83.0592 8.75018 83.1107 8.90676 83.1221 9.04595C83.145 9.17353 83.1565 9.37071 83.1565 9.63749V20.0242C83.1565 20.291 83.145 20.494 83.1221 20.6332C83.1107 20.7608 83.0592 20.9057 82.9676 21.0681C82.796 21.3813 82.3096 21.5379 81.5085 21.5379C80.7189 21.5379 80.2783 21.2537 80.1867 20.6854C79.706 21.2421 79.0366 21.5205 78.1783 21.5205C77.1483 21.5205 76.2099 21.0681 75.363 20.1634C74.5161 19.2471 74.0927 18.1858 74.0927 16.9795C74.0927 15.7617 74.5161 14.6946 75.363 13.7783C76.2213 12.862 77.1597 12.4038 78.1783 12.4038C79.0251 12.4038 79.6832 12.6938 80.1524 13.2737V9.62009C80.1524 9.35332 80.1581 9.15614 80.1695 9.02855C80.1924 8.88936 80.2439 8.73858 80.324 8.5762ZM77.5431 18.0234C77.8407 18.3366 78.2011 18.4932 78.6246 18.4932C79.048 18.4932 79.3971 18.3366 79.6717 18.0234C79.9578 17.7103 80.1009 17.3681 80.1009 16.9969C80.1009 16.6142 79.9635 16.2604 79.6889 15.9357C79.4257 15.6109 79.0652 15.4485 78.6074 15.4485C78.1496 15.4485 77.7834 15.6109 77.5088 15.9357C77.2341 16.2488 77.0968 16.5968 77.0968 16.9795C77.0968 17.3623 77.2456 17.7103 77.5431 18.0234Z" fill="#8DB511"/>
<path d="M83.8806 13.9099C83.8806 13.6435 83.8868 13.4466 83.8993 13.3192C83.9241 13.1802 83.9801 13.0238 84.0671 12.85C84.2411 12.5488 84.7259 12.3983 85.5214 12.3983C86.1181 12.3983 86.5407 12.4967 86.7893 12.6936C87.0006 12.8558 87.1125 13.1049 87.1249 13.4408C87.1373 13.5566 87.1436 13.7246 87.1436 13.9447V20.0262C87.1436 20.2926 87.1311 20.4953 87.1063 20.6343C87.0938 20.7618 87.0379 20.9123 86.9385 21.0861C86.7769 21.3873 86.2983 21.5379 85.5028 21.5379C84.7197 21.5379 84.2411 21.3815 84.0671 21.0687C83.9801 20.895 83.9241 20.7444 83.8993 20.617C83.8868 20.4895 83.8806 20.2868 83.8806 20.0088V13.9099ZM86.9385 10.6954C86.8514 10.8576 86.6899 10.9734 86.4537 11.0429C86.2175 11.1124 85.9005 11.1472 85.5028 11.1472C85.1174 11.1472 84.8067 11.1124 84.5705 11.0429C84.3343 10.9734 84.1665 10.8518 84.0671 10.678C83.9801 10.5043 83.9241 10.3537 83.8993 10.2263C83.8868 10.0873 83.8806 9.88456 83.8806 9.61813C83.8806 9.3517 83.8868 9.15478 83.8993 9.02736C83.9241 8.88835 83.9801 8.73776 84.0671 8.57559C84.2411 8.26283 84.7259 8.10645 85.5214 8.10645C86.3045 8.10645 86.7769 8.26283 86.9385 8.57559C87.0379 8.74935 87.0938 8.90573 87.1063 9.04473C87.1311 9.17215 87.1436 9.36908 87.1436 9.63551C87.1436 9.90193 87.1311 10.1046 87.1063 10.2437C87.0938 10.3711 87.0379 10.5217 86.9385 10.6954Z" fill="#8DB511"/>
<path d="M96.3184 17.9203L96.6401 17.6875C97.0451 17.4487 97.331 17.3294 97.4977 17.3294C97.867 17.3294 98.2661 17.6637 98.6949 18.3322C98.957 18.7501 99.088 19.0844 99.088 19.3351C99.088 19.5858 99.0046 19.7948 98.8378 19.9619C98.683 20.1291 98.4983 20.2783 98.2839 20.4096C98.0695 20.541 97.861 20.6663 97.6585 20.7857C97.4679 20.9051 97.0689 21.0603 96.4614 21.2513C95.8539 21.4424 95.2642 21.5379 94.6924 21.5379C94.1326 21.5379 93.5608 21.4662 92.9771 21.323C92.4053 21.1678 91.8097 20.917 91.1903 20.5708C90.5828 20.2126 90.0348 19.7828 89.5464 19.2814C89.058 18.768 88.653 18.1173 88.3314 17.3294C88.0217 16.5294 87.8668 15.6639 87.8668 14.7326C87.8668 13.8014 88.0217 12.9597 88.3314 12.2075C88.6411 11.4434 89.0342 10.8166 89.5107 10.3271C89.9991 9.82567 90.553 9.4078 91.1724 9.07351C92.3398 8.4288 93.5131 8.10645 94.6924 8.10645C95.2523 8.10645 95.8181 8.19599 96.3899 8.37507C96.9736 8.54222 97.4143 8.71534 97.7121 8.89442L98.141 9.14514C98.3554 9.27647 98.5222 9.38392 98.6413 9.4675C98.951 9.71822 99.1059 10.0048 99.1059 10.3271C99.1059 10.6375 98.9808 10.9658 98.7306 11.3121C98.2661 11.9568 97.8491 12.2791 97.4799 12.2791C97.2654 12.2791 96.9617 12.1478 96.5686 11.8852C96.0683 11.4792 95.4012 11.2763 94.5674 11.2763C93.7931 11.2763 93.0307 11.5449 92.2803 12.0821C91.9229 12.3448 91.6251 12.7149 91.3868 13.1925C91.1486 13.67 91.0295 14.2133 91.0295 14.8222C91.0295 15.4191 91.1486 15.9564 91.3868 16.4339C91.6251 16.9115 91.9288 17.2876 92.2981 17.5622C93.0248 18.0875 93.7812 18.3501 94.5674 18.3501C94.9366 18.3501 95.2821 18.3024 95.6037 18.2069C95.9373 18.1114 96.1755 18.0159 96.3184 17.9203Z" fill="#8DB511"/>
<path d="M104.882 12.4156C106.033 12.4156 106.989 12.8558 107.748 13.7362C108.519 14.6165 108.905 15.6938 108.905 16.9681V20.0262C108.905 20.2926 108.893 20.4953 108.87 20.6343C108.859 20.7618 108.807 20.9123 108.715 21.0861C108.565 21.3873 108.122 21.5379 107.386 21.5379C106.684 21.5379 106.246 21.3873 106.074 21.0861C105.981 20.9123 105.924 20.756 105.901 20.617C105.889 20.478 105.884 20.2694 105.884 19.9914V16.9507C105.884 16.4757 105.751 16.1051 105.487 15.8386C105.222 15.5722 104.882 15.439 104.468 15.439C104.065 15.439 103.708 15.5664 103.398 15.8213C103.087 16.0645 102.908 16.3425 102.862 16.6553V20.0262C102.862 20.2926 102.851 20.4953 102.828 20.6343C102.816 20.7618 102.765 20.9123 102.672 21.0861C102.523 21.3873 102.08 21.5379 101.343 21.5379C100.618 21.5379 100.175 21.3815 100.014 21.0687C99.9332 20.895 99.8814 20.7444 99.8584 20.617C99.8469 20.4895 99.8411 20.2868 99.8411 20.0088V9.61813C99.8411 9.35171 99.8469 9.15478 99.8584 9.02736C99.8814 8.88835 99.9332 8.73776 100.014 8.57559C100.175 8.26283 100.624 8.10645 101.36 8.10645C102.085 8.10645 102.523 8.26283 102.672 8.57559C102.765 8.74935 102.816 8.90573 102.828 9.04473C102.851 9.17216 102.862 9.36908 102.862 9.63551V13.4755C103.438 12.7689 104.111 12.4156 104.882 12.4156Z" fill="#8DB511"/>
<path d="M118.33 15.954C118.33 16.6238 118.158 17.1234 117.815 17.4528C117.482 17.7712 117.11 17.9305 116.7 17.9305H112.757C112.757 18.2379 112.94 18.496 113.306 18.7046C113.672 18.9132 114.038 19.0175 114.404 19.0175C115.047 19.0175 115.552 18.9516 115.918 18.8199L116.101 18.754C116.367 18.6332 116.589 18.5728 116.766 18.5728C117.121 18.5728 117.426 18.8199 117.682 19.314C117.826 19.6105 117.898 19.863 117.898 20.0717C117.898 21.0489 116.717 21.5375 114.354 21.5375C113.533 21.5375 112.801 21.4003 112.158 21.1258C111.526 20.8403 111.032 20.4669 110.677 20.0058C109.978 19.1163 109.629 18.1226 109.629 17.0246C109.629 15.641 110.078 14.5375 110.977 13.7139C111.886 12.8794 113.018 12.4622 114.371 12.4622C115.912 12.4622 117.044 13.0002 117.765 14.0763C118.142 14.6473 118.33 15.2732 118.33 15.954ZM114.82 16.4316C115.241 16.4316 115.452 16.2559 115.452 15.9046C115.452 15.652 115.352 15.4488 115.153 15.2951C114.964 15.1414 114.687 15.0645 114.321 15.0645C113.966 15.0645 113.611 15.2128 113.256 15.5092C112.901 15.7947 112.724 16.1022 112.724 16.4316H114.82Z" fill="#8DB511"/>
<path d="M122.023 17.1424C122.023 17.6146 122.181 17.9857 122.495 18.2555C122.809 18.5142 123.141 18.6435 123.489 18.6435C123.848 18.6435 124.18 18.5423 124.483 18.3399C124.797 18.1262 125.05 18.0194 125.241 18.0194C125.578 18.0194 125.987 18.3174 126.47 18.9133C126.729 19.2394 126.858 19.5317 126.858 19.7903C126.858 20.2176 126.549 20.6168 125.931 20.9878C125.291 21.4376 124.505 21.6624 123.573 21.6624C122.529 21.6624 121.524 21.2858 120.558 20.5324C120.098 20.1726 119.721 19.6948 119.429 19.0988C119.137 18.4917 118.991 17.8283 118.991 17.1087C118.991 16.3778 119.137 15.72 119.429 15.1354C119.721 14.5394 120.098 14.0616 120.558 13.7018C121.49 12.9597 122.484 12.5886 123.539 12.5886C123.966 12.5886 124.382 12.6505 124.786 12.7741C125.19 12.8866 125.488 12.999 125.679 13.1115L125.948 13.2801C126.15 13.4151 126.308 13.5219 126.42 13.6006C126.712 13.8255 126.858 14.0841 126.858 14.3764C126.858 14.6575 126.74 14.978 126.504 15.3378C126.1 15.9562 125.712 16.2654 125.342 16.2654C125.128 16.2654 124.825 16.1417 124.432 15.8943C124.23 15.7032 123.938 15.6076 123.556 15.6076C123.186 15.6076 122.838 15.7425 122.512 16.0124C122.186 16.2822 122.023 16.6589 122.023 17.1424Z" fill="#8DB511"/>
<path d="M132.986 16.8948L135.331 18.7864C135.625 19.0272 135.807 19.2106 135.878 19.3367C135.96 19.4628 136.001 19.5832 136.001 19.6978C136.001 19.973 135.819 20.3456 135.455 20.8156C135.055 21.2971 134.702 21.5379 134.397 21.5379C134.138 21.5379 133.779 21.3716 133.321 21.0392L133.144 20.9188C132.874 20.701 132.457 20.3226 131.892 19.7838C131.328 19.2335 130.899 18.8438 130.605 18.6145V19.9386C130.605 20.2023 130.593 20.4029 130.569 20.5405C130.558 20.6666 130.505 20.8156 130.411 20.9876C130.258 21.2856 129.805 21.4347 129.053 21.4347C128.312 21.4347 127.859 21.2799 127.695 20.9704C127.612 20.7984 127.559 20.6494 127.536 20.5233C127.524 20.3857 127.518 20.1851 127.518 19.9214V9.62071C127.518 9.35703 127.524 9.16214 127.536 9.03603C127.559 8.89846 127.612 8.74369 127.695 8.57173C127.859 8.26219 128.318 8.10742 129.07 8.10742C129.635 8.10742 130.034 8.20487 130.27 8.39976C130.469 8.56026 130.575 8.81248 130.587 9.15641C130.599 9.25959 130.605 9.42009 130.605 9.63791V15.0892C130.816 14.9172 131.134 14.6249 131.557 14.2122C131.992 13.7995 132.315 13.5071 132.527 13.3351L132.739 13.1976C133.15 12.888 133.503 12.7333 133.797 12.7333C134.091 12.7333 134.426 12.9683 134.802 13.4383C135.19 13.8969 135.384 14.258 135.384 14.5217C135.384 14.7854 135.167 15.0949 134.732 15.4503L132.986 16.8948Z" fill="#8DB511"/>
</svg>
