<svg width="212" height="50" viewBox="0 0 212 50" fill="none" xmlns="http://www.w3.org/2000/svg">
<path fill-rule="evenodd" clip-rule="evenodd" d="M42.1261 27.4358C43.8267 27.8798 44.863 29.6236 44.1809 31.2349C42.9337 34.1812 41.0646 36.8425 38.6861 39.0326C38.6654 39.0517 38.6446 39.0707 38.6239 39.0896L41.7647 44.0745C42.7958 45.7109 42.2967 47.8675 40.65 48.8913L39.7235 49.4674C38.0767 50.4912 35.9059 49.9946 34.8748 48.3582L31.7544 43.4057C30.3406 43.9735 28.8665 44.4012 27.3528 44.6785C23.1118 45.4554 18.7355 45.0188 14.7351 43.4198C10.7348 41.8208 7.27549 39.1254 4.76134 35.6483C2.24718 32.1713 0.781946 28.0563 0.536764 23.7838C0.291583 19.5113 1.27658 15.2578 3.3767 11.52C5.47683 7.78231 8.60539 4.71465 12.397 2.67538C15.2538 1.13887 18.3981 0.233967 21.6153 0.00698645C23.365 -0.116461 24.6912 1.41425 24.5704 3.15414C24.4496 4.89336 22.9231 6.17445 21.1833 6.39177C19.1762 6.6425 17.224 7.26154 15.4294 8.22675C12.6995 9.69503 10.4469 11.9037 8.93482 14.5949C7.42273 17.2861 6.71353 20.3486 6.89007 23.4248C7.0666 26.501 8.12157 29.4638 9.93176 31.9673C11.7419 34.4707 14.2326 36.4114 17.1129 37.5627C19.9931 38.714 23.1441 39.0283 26.1976 38.469C29.2512 37.9097 32.0814 36.4998 34.3576 34.404C35.8516 33.0283 37.0665 31.3944 37.9484 29.5913C38.7163 28.0214 40.4279 26.9924 42.1261 27.4358ZM36.2173 22.3311C36.2173 18.7564 34.7611 15.5195 32.4059 13.1739C38.4811 13.5487 41.9093 7.43439 41.9093 7.43439C33.2515 3.60794 29.4677 8.01861 28.1536 10.3452C26.6163 9.7129 24.9309 9.36398 23.1635 9.36398C15.9541 9.36398 10.1097 15.1696 10.1097 22.3311C10.1097 29.4926 15.9541 35.2982 23.1635 35.2982C30.3729 35.2982 36.2173 29.4926 36.2173 22.3311ZM21.6994 15.4819C21.0245 16.2743 19.8308 16.3732 19.0331 15.7029C18.2355 15.0325 18.1359 13.8467 18.8107 13.0543C19.4855 12.262 20.6793 12.163 21.4769 12.8334C22.2746 13.5038 22.3742 14.6895 21.6994 15.4819ZM14.8371 28.4071C15.3772 29.2095 16.4696 29.4252 17.2771 28.8889C18.0846 28.3525 18.3014 27.2673 17.7613 26.4648C17.0511 25.4099 16.645 24.1836 16.5863 22.9213C16.5276 21.6591 16.8185 20.4105 17.4248 19.3117C17.8917 18.4655 17.5797 17.4033 16.7277 16.9391C15.8758 16.475 14.8067 16.7847 14.3398 17.6309C13.4215 19.2952 12.9837 21.1811 13.072 23.0815C13.1604 24.9816 13.7714 26.8238 14.8371 28.4071ZM53.5797 13.6658C53.5797 13.2324 53.5892 12.9121 53.6083 12.7048C53.6464 12.4787 53.7418 12.2243 53.8943 11.9416C54.1612 11.4328 54.9049 11.1785 56.1251 11.1785C57.4598 11.1785 58.2511 11.5271 58.499 12.2243C58.5943 12.5446 58.642 13.0345 58.642 13.6941V29.4096C58.642 29.8619 58.6229 30.1916 58.5848 30.3989C58.5657 30.6062 58.4799 30.8512 58.3274 31.1338C58.0604 31.6426 57.3168 31.897 56.0965 31.897C54.7618 31.897 53.9801 31.5389 53.7513 30.8229C53.6369 30.5214 53.5797 30.0409 53.5797 29.3814V13.6658ZM72.033 19.9469C70.8567 18.5807 69.3774 17.8976 67.5951 17.8976C66.8644 17.8976 66.1961 18.1016 65.5901 18.5097C65.3584 18.6516 65.1178 18.8379 64.8683 19.0686C64.6188 19.2993 64.4583 19.4767 64.3871 19.6009C64.3871 19.1751 64.2979 18.8113 64.1197 18.5097C63.8702 18.1016 63.2018 17.8976 62.1146 17.8976C60.9918 17.8976 60.3056 18.1194 60.0561 18.5629C59.9135 18.8113 59.8244 19.042 59.7888 19.2549C59.7709 19.4501 59.762 19.7428 59.762 20.1332V29.5548C59.762 29.9629 59.7709 30.2734 59.7888 30.4863C59.8244 30.6815 59.9046 30.9121 60.0294 31.1783C60.2789 31.6573 60.9651 31.8969 62.0879 31.8969C63.2286 31.8969 63.9147 31.6573 64.1464 31.1783C64.289 30.9299 64.3692 30.7081 64.3871 30.5129C64.4227 30.3 64.4405 29.9895 64.4405 29.5814V24.8706C64.4405 24.1786 64.6544 23.6197 65.0821 23.1939C65.5277 22.768 66.098 22.5551 66.7931 22.5551C67.506 22.5551 68.0675 22.7592 68.4774 23.1673C68.9051 23.5754 69.119 24.1431 69.119 24.8706V29.5548C69.119 30.158 69.1725 30.6105 69.2794 30.9121C69.4755 31.5686 70.2062 31.8969 71.4716 31.8969C72.6123 31.8969 73.3074 31.6573 73.5569 31.1783C73.6816 30.9299 73.7529 30.7081 73.7708 30.5129C73.8064 30.3 73.8242 29.9895 73.8242 29.5814V24.8972C73.8242 22.9455 73.2272 21.2954 72.033 19.9469ZM84.3874 30.5864C83.7024 31.5 82.6117 31.9567 81.1153 31.9567C79.619 31.9567 78.2128 31.2624 76.8967 29.8739C75.5986 28.4671 74.9496 26.8318 74.9496 24.9683C74.9496 23.1046 75.6077 21.4694 76.9237 20.0626C78.2398 18.6558 79.6821 17.9524 81.2505 17.9524C81.8635 17.9524 82.4224 18.0711 82.9271 18.3087C83.4319 18.5279 83.7745 18.738 83.9548 18.939C84.1531 19.1217 84.3063 19.2953 84.4145 19.4597C84.4686 18.9481 84.6489 18.5644 84.9553 18.3087C85.2798 18.0346 85.7937 17.8976 86.4968 17.8976C87.1999 17.8976 87.7137 17.9524 88.0382 18.062C88.3627 18.1716 88.5881 18.3635 88.7142 18.6375C88.8585 18.8933 88.9396 19.1217 88.9576 19.3227C88.9937 19.5236 89.0117 19.8342 89.0117 20.2545V31.6004C89.0117 33.7015 88.2906 35.3916 86.8483 36.6705C85.406 37.9677 83.7835 38.6163 81.9807 38.6163C80.6105 38.6163 79.3035 38.2783 78.0595 37.6023C76.8156 36.9263 76.1936 36.3142 76.1936 35.7661C76.1936 35.0536 76.464 34.4232 77.0049 33.8751C77.3474 33.4914 77.6088 33.2265 77.7891 33.0803C77.9874 32.9342 78.2128 32.8611 78.4652 32.8611C78.7176 32.8611 78.979 32.9707 79.2494 33.19C80.1147 33.866 81.0522 34.204 82.0618 34.204C82.7469 34.204 83.3057 33.9299 83.7384 33.3818C84.1711 32.8337 84.3874 32.176 84.3874 31.4086V30.5864ZM79.5739 24.9957C79.5739 25.5803 79.7992 26.1102 80.25 26.5852C80.7187 27.0602 81.2776 27.2977 81.9266 27.2977C82.5936 27.2977 83.1435 27.0602 83.5762 26.5852C84.0089 26.0919 84.2252 25.562 84.2252 24.9957C84.2252 24.411 84.0179 23.872 83.6032 23.3787C83.1886 22.8671 82.6297 22.6113 81.9266 22.6113C81.2235 22.6113 80.6556 22.858 80.2229 23.3513C79.7902 23.8446 79.5739 24.3927 79.5739 24.9957ZM100.477 18.7396C100.264 18.4765 99.9895 18.2923 99.6527 18.187C99.316 18.0818 99.0058 18.0116 98.7222 17.9765C98.4387 17.9239 98.0842 17.8976 97.6588 17.8976C97.2512 17.8976 96.7726 18.0467 96.2232 18.3449C95.6738 18.6431 95.3105 18.88 95.1332 19.0554C94.9737 19.2308 94.8496 19.3799 94.761 19.5027C94.761 19.2045 94.6636 18.9151 94.4686 18.6344C94.2027 18.2309 93.5381 18.0291 92.4747 18.0291C91.3404 18.0291 90.6492 18.266 90.401 18.7396C90.277 18.9852 90.1972 19.2133 90.1618 19.4238C90.144 19.6168 90.1352 19.915 90.1352 20.3185V29.5549V30.318C90.1706 30.8267 90.3301 31.2039 90.6137 31.4495C90.9859 31.7477 91.5974 31.8969 92.4481 31.8969C93.5647 31.8969 94.2559 31.6688 94.5218 31.2127C94.6636 30.9495 94.7433 30.7215 94.761 30.5285C94.7965 30.318 94.8142 30.011 94.8142 29.6075V24.0815C94.8142 23.6078 95.018 23.2043 95.4257 22.871C95.851 22.5377 96.303 22.371 96.7815 22.371C97.26 22.371 97.6411 22.4412 97.9247 22.5815C98.226 22.7219 98.5361 22.792 98.8552 22.792C99.4932 22.792 99.9806 22.4587 100.317 21.7921C100.654 21.1255 100.822 20.5115 100.822 19.9501C100.822 19.3887 100.707 18.9852 100.477 18.7396ZM114.322 23.2839C114.322 24.3171 114.056 25.0878 113.522 25.5959C113.006 26.0871 112.429 26.3327 111.793 26.3327H105.675C105.675 26.807 105.959 27.205 106.527 27.5269C107.095 27.8487 107.663 28.0096 108.231 28.0096C109.229 28.0096 110.012 27.908 110.58 27.7047L110.863 27.6031C111.276 27.4168 111.621 27.3236 111.896 27.3236C112.447 27.3236 112.92 27.7047 113.316 28.4669C113.539 28.9242 113.651 29.3138 113.651 29.6356C113.651 31.1431 111.819 31.8969 108.153 31.8969C106.88 31.8969 105.744 31.6851 104.746 31.2617C103.765 30.8213 102.999 30.2454 102.449 29.534C101.365 28.162 100.823 26.6291 100.823 24.9353C100.823 22.8011 101.519 21.0989 102.913 19.8285C104.324 18.5412 106.08 17.8976 108.179 17.8976C110.571 17.8976 112.326 18.7275 113.445 20.3875C114.03 21.2682 114.322 22.2337 114.322 23.2839ZM108.876 24.0207C109.53 24.0207 109.857 23.7497 109.857 23.2077C109.857 22.8181 109.702 22.5047 109.392 22.2676C109.1 22.0304 108.669 21.9119 108.102 21.9119C107.551 21.9119 107 22.1405 106.45 22.5979C105.899 23.0383 105.624 23.5125 105.624 24.0207H108.876ZM125.833 11.3395C125.496 11.4468 125.256 11.6347 125.114 11.9031C124.99 12.1536 124.91 12.3862 124.874 12.6009C124.856 12.7977 124.848 13.1018 124.848 13.5133V19.1493C124.12 18.2547 123.099 17.8074 121.785 17.8074C120.205 17.8074 118.749 18.5141 117.417 19.9276C116.103 21.341 115.446 22.9871 115.446 24.8657C115.446 26.7265 116.103 28.3636 117.417 29.777C118.731 31.1726 120.187 31.8704 121.785 31.8704C123.116 31.8704 124.155 31.4409 124.901 30.5821C125.043 31.4588 125.726 31.8972 126.952 31.8972C128.194 31.8972 128.949 31.6556 129.215 31.1726C129.357 30.9221 129.437 30.6984 129.455 30.5016C129.491 30.2869 129.508 29.9738 129.508 29.5623V13.5402C129.508 13.1287 129.491 12.8245 129.455 12.6277C129.437 12.413 129.357 12.1715 129.215 11.9031C129.091 11.6347 128.86 11.4468 128.523 11.3395C128.186 11.2321 127.733 11.1785 127.165 11.1785C126.614 11.1785 126.17 11.2321 125.833 11.3395ZM122.477 27.2006C121.82 27.2006 121.261 26.9591 120.799 26.476C120.338 25.9929 120.107 25.4561 120.107 24.8657C120.107 24.2753 120.32 23.7385 120.746 23.2554C121.172 22.7545 121.74 22.504 122.451 22.504C123.161 22.504 123.72 22.7545 124.129 23.2554C124.555 23.7564 124.768 24.3021 124.768 24.8925C124.768 25.4651 124.546 25.9929 124.102 26.476C123.676 26.9591 123.134 27.2006 122.477 27.2006ZM130.632 20.1307C130.632 19.7197 130.641 19.4159 130.661 19.2194C130.699 19.005 130.786 18.7637 130.921 18.4957C131.191 18.0311 131.943 17.7988 133.177 17.7988C134.103 17.7988 134.759 17.9507 135.145 18.2545C135.472 18.5046 135.646 18.8888 135.665 19.407C135.684 19.5857 135.694 19.8448 135.694 20.1843V29.5653C135.694 29.9763 135.675 30.289 135.636 30.5034C135.617 30.7 135.53 30.9323 135.376 31.2003C135.125 31.6649 134.383 31.8972 133.148 31.8972C131.934 31.8972 131.191 31.656 130.921 31.1735C130.786 30.9055 130.699 30.6732 130.661 30.4766C130.641 30.2801 130.632 29.9674 130.632 29.5385V20.1307ZM135.376 15.1721C135.241 15.4223 134.99 15.6009 134.624 15.7082C134.257 15.8154 133.766 15.869 133.148 15.869C132.551 15.869 132.069 15.8154 131.702 15.7082C131.336 15.6009 131.075 15.4133 130.921 15.1453C130.786 14.8773 130.699 14.645 130.661 14.4484C130.641 14.234 130.632 13.9213 130.632 13.5103C130.632 13.0993 130.641 12.7956 130.661 12.599C130.699 12.3846 130.786 12.1523 130.921 11.9021C131.191 11.4197 131.943 11.1785 133.177 11.1785C134.392 11.1785 135.125 11.4197 135.376 11.9021C135.53 12.1702 135.617 12.4114 135.636 12.6258C135.675 12.8224 135.694 13.1261 135.694 13.5371C135.694 13.9481 135.675 14.2608 135.636 14.4752C135.617 14.6718 135.53 14.9041 135.376 15.1721ZM150.43 25.9578L149.931 26.3169C149.71 26.4643 149.34 26.6116 148.822 26.7589C148.323 26.9063 147.788 26.9799 147.215 26.9799C145.995 26.9799 144.821 26.5748 143.694 25.7644C143.121 25.3409 142.65 24.7607 142.28 24.0241C141.91 23.2874 141.726 22.4587 141.726 21.5378C141.726 20.5986 141.91 19.7606 142.28 19.024C142.65 18.2873 143.112 17.7164 143.666 17.3112C144.831 16.4825 146.013 16.0681 147.215 16.0681C148.508 16.0681 149.543 16.3812 150.319 17.0073C150.929 17.4125 151.401 17.6151 151.733 17.6151C152.306 17.6151 152.953 17.1178 153.674 16.1233C154.062 15.5892 154.256 15.0828 154.256 14.604C154.256 14.1067 154.016 13.6647 153.535 13.278C153.35 13.149 153.092 12.9833 152.759 12.7807L152.094 12.394C151.632 12.1177 150.948 11.8507 150.042 11.5928C149.155 11.3166 148.277 11.1785 147.409 11.1785C145.579 11.1785 143.759 11.6757 141.947 12.6702C140.986 13.1859 140.127 13.8305 139.369 14.604C138.63 15.359 138.02 16.3259 137.54 17.5046C137.059 18.6648 136.819 19.9632 136.819 21.3997C136.819 22.8362 137.059 24.1714 137.54 25.4053C138.039 26.6208 138.667 27.6245 139.425 28.4164C140.182 29.1899 141.033 29.8529 141.975 30.4054C142.936 30.9395 143.86 31.3263 144.747 31.5657C145.653 31.7867 146.54 31.8972 147.409 31.8972C148.296 31.8972 149.211 31.7499 150.153 31.4552C151.096 31.1605 151.715 30.9211 152.01 30.7369C152.325 30.5528 152.648 30.3594 152.981 30.1568C153.313 29.9542 153.6 29.724 153.84 29.4662C154.099 29.2084 154.228 28.8861 154.228 28.4993C154.228 28.1126 154.025 27.5969 153.618 26.9523C152.953 25.921 152.334 25.4053 151.761 25.4053C151.502 25.4053 151.059 25.5895 150.43 25.9578ZM163.218 17.8256C165.004 17.8256 166.486 18.5046 167.664 19.8626C168.861 21.2207 169.459 22.8824 169.459 24.848V29.5653C169.459 29.9763 169.441 30.289 169.405 30.5034C169.387 30.7 169.307 30.9323 169.164 31.2003C168.932 31.6649 168.245 31.8972 167.102 31.8972C166.013 31.8972 165.334 31.6649 165.066 31.2003C164.923 30.9323 164.834 30.6911 164.798 30.4766C164.78 30.2622 164.772 29.9406 164.772 29.5117V24.8212C164.772 24.0886 164.566 23.5168 164.156 23.1058C163.745 22.6948 163.218 22.4893 162.575 22.4893C161.95 22.4893 161.397 22.6859 160.914 23.079C160.432 23.4542 160.156 23.8831 160.084 24.3655V29.5653C160.084 29.9763 160.066 30.289 160.031 30.5034C160.013 30.7 159.932 30.9323 159.79 31.2003C159.557 31.6649 158.87 31.8972 157.727 31.8972C156.602 31.8972 155.915 31.656 155.665 31.1735C155.54 30.9055 155.459 30.6732 155.424 30.4766C155.406 30.2801 155.397 29.9674 155.397 29.5385V13.5103C155.397 13.0993 155.406 12.7956 155.424 12.599C155.459 12.3846 155.54 12.1523 155.665 11.9021C155.915 11.4197 156.611 11.1785 157.754 11.1785C158.879 11.1785 159.557 11.4197 159.79 11.9021C159.932 12.1702 160.013 12.4114 160.031 12.6258C160.066 12.8224 160.084 13.1261 160.084 13.5371V19.4606C160.977 18.3706 162.022 17.8256 163.218 17.8256ZM183.284 25.5959C183.817 25.0878 184.084 24.3171 184.084 23.2839C184.084 22.2337 183.792 21.2682 183.207 20.3875C182.088 18.7275 180.333 17.8976 177.941 17.8976C175.842 17.8976 174.086 18.5412 172.675 19.8285C171.281 21.0989 170.584 22.8011 170.584 24.9353C170.584 26.6291 171.126 28.162 172.211 29.534C172.761 30.2454 173.527 30.8213 174.508 31.2617C175.506 31.6851 176.642 31.8969 177.915 31.8969C181.58 31.8969 183.413 31.1431 183.413 29.6356C183.413 29.3138 183.301 28.9242 183.077 28.4669C182.682 27.7047 182.208 27.3236 181.658 27.3236C181.383 27.3236 181.038 27.4168 180.625 27.6031L180.341 27.7047C179.774 27.908 178.991 28.0096 177.993 28.0096C177.425 28.0096 176.857 27.8487 176.289 27.5269C175.721 27.205 175.437 26.807 175.437 26.3327H181.555C182.191 26.3327 182.768 26.0871 183.284 25.5959ZM179.619 23.2077C179.619 23.7497 179.292 24.0207 178.638 24.0207H175.385C175.385 23.5125 175.661 23.0383 176.211 22.5979C176.762 22.1405 177.313 21.9119 177.863 21.9119C178.431 21.9119 178.862 22.0304 179.154 22.2676C179.464 22.5047 179.619 22.8181 179.619 23.2077ZM189.813 25.1166C189.813 25.845 190.057 26.4174 190.545 26.8336C191.033 27.2326 191.547 27.432 192.087 27.432C192.644 27.432 193.158 27.2759 193.629 26.9637C194.117 26.6342 194.509 26.4694 194.805 26.4694C195.327 26.4694 195.963 26.929 196.712 27.8483C197.113 28.3513 197.314 28.8022 197.314 29.2011C197.314 29.8602 196.834 30.476 195.876 31.0483C194.883 31.7421 193.664 32.089 192.217 32.089C190.597 32.089 189.038 31.5079 187.54 30.3459C186.825 29.7909 186.242 29.0537 185.789 28.1345C185.336 27.1979 185.109 26.1746 185.109 25.0645C185.109 23.9371 185.336 22.9225 185.789 22.0206C186.242 21.1013 186.825 20.3642 187.54 19.8092C188.986 18.6645 190.528 18.0921 192.165 18.0921C192.827 18.0921 193.472 18.1875 194.099 18.3783C194.726 18.5517 195.188 18.7252 195.484 18.8986L195.902 19.1588C196.216 19.3669 196.46 19.5317 196.634 19.6531C197.087 20 197.314 20.3989 197.314 20.8499C197.314 21.2835 197.131 21.7778 196.765 22.3328C196.138 23.2867 195.536 23.7637 194.962 23.7637C194.63 23.7637 194.16 23.5729 193.55 23.1913C193.237 22.8965 192.784 22.7491 192.191 22.7491C191.616 22.7491 191.076 22.9572 190.571 23.3735C190.066 23.7897 189.813 24.3708 189.813 25.1166ZM210.46 27.6528L206.821 24.7349L209.53 22.5066C210.205 21.9584 210.542 21.481 210.542 21.0742C210.542 20.6675 210.241 20.1104 209.639 19.403C209.056 18.678 208.536 18.3155 208.08 18.3155C207.624 18.3155 207.076 18.5542 206.438 19.0317L206.11 19.2439C205.781 19.5092 205.28 19.9601 204.605 20.5967C203.948 21.2334 203.455 21.6843 203.127 21.9496V13.5407C203.127 13.2047 203.118 12.9571 203.1 12.7979C203.081 12.2674 202.917 11.8784 202.607 11.6308C202.242 11.3301 201.622 11.1798 200.747 11.1798C199.579 11.1798 198.868 11.4186 198.612 11.896C198.485 12.1613 198.402 12.4 198.366 12.6123C198.348 12.8068 198.339 13.1074 198.339 13.5142V29.4035C198.339 29.8103 198.348 30.1198 198.366 30.332C198.402 30.5265 198.485 30.7564 198.612 31.0217C198.868 31.4991 199.57 31.7379 200.719 31.7379C201.887 31.7379 202.589 31.508 202.826 31.0482C202.972 30.7829 203.054 30.553 203.072 30.3585C203.109 30.1463 203.127 29.8368 203.127 29.4301V27.3875C203.583 27.7412 204.249 28.3425 205.125 29.1913C206 30.0225 206.648 30.6061 207.067 30.9421L207.341 31.1278C208.052 31.6406 208.609 31.897 209.01 31.897C209.484 31.897 210.032 31.5257 210.652 30.7829C211.217 30.0579 211.5 29.4831 211.5 29.0587C211.5 28.8819 211.436 28.6962 211.308 28.5016C211.199 28.3071 210.916 28.0242 210.46 27.6528Z" fill="#DDDEDA"/>
</svg>
