<svg width="598" height="357" viewBox="0 0 598 357" fill="none" xmlns="http://www.w3.org/2000/svg">
<g clip-path="url(#clip0_1_2625)">
<g clip-path="url(#clip1_1_2625)">
<path d="M408.305 169.571V150.653H369.992V169.571C369.992 174.938 367.727 180.054 363.755 183.659L356.85 189.925C353.118 193.312 350.135 197.444 348.094 202.054C346.053 206.664 344.998 211.651 344.998 216.693V305.503C344.998 310.817 349.303 315.126 354.613 315.126H423.684C428.994 315.126 433.299 310.817 433.299 305.503V216.693C433.299 211.651 432.244 206.664 430.203 202.054C428.162 197.444 425.179 193.312 421.447 189.925L414.542 183.659C412.578 181.876 411.008 179.702 409.934 177.276C408.86 174.849 408.305 172.225 408.305 169.571Z" fill="#1E1E1E"/>
<path d="M366.743 305.503V216.693C366.743 211.651 367.798 206.664 369.839 202.054C371.88 197.444 374.863 193.312 378.595 189.925L385.5 183.659C387.464 181.876 389.034 179.702 390.108 177.276C391.182 174.849 391.737 172.225 391.737 169.571V150.653H379.364V169.571C379.364 174.938 377.098 180.054 373.126 183.659L366.222 189.925C362.489 193.312 359.506 197.443 357.465 202.054C355.424 206.664 354.369 211.651 354.369 216.693V305.503C354.369 310.817 358.674 315.126 363.985 315.126H376.358C371.048 315.126 366.743 310.817 366.743 305.503Z" fill="white"/>
<path d="M423.683 315.751H354.613C348.966 315.751 344.373 311.153 344.373 305.503V216.693C344.373 206.341 348.768 196.416 356.43 189.462L363.335 183.196C365.233 181.471 366.75 179.368 367.789 177.021C368.828 174.675 369.366 172.137 369.368 169.571V150.653C369.368 150.488 369.433 150.329 369.55 150.212C369.668 150.094 369.826 150.029 369.992 150.029H408.304C408.47 150.029 408.629 150.094 408.746 150.212C408.863 150.329 408.928 150.488 408.928 150.653V169.571C408.931 172.137 409.468 174.675 410.507 177.021C411.546 179.368 413.063 181.471 414.961 183.196L421.866 189.462C429.528 196.416 433.923 206.341 433.923 216.694V305.503C433.923 311.154 429.33 315.751 423.683 315.751H423.683ZM370.616 151.278V169.571C370.616 175.102 368.267 180.406 364.173 184.122L357.269 190.387C349.867 197.105 345.621 206.693 345.621 216.694V305.503C345.621 310.465 349.655 314.501 354.612 314.501H423.683C428.641 314.501 432.674 310.465 432.674 305.503V216.693C432.674 206.693 428.429 197.105 421.026 190.387L414.122 184.122C410.028 180.406 407.679 175.102 407.679 169.571V151.278H370.616Z" fill="#1E1E1E"/>
<path d="M375.501 133.977H402.795C408.506 133.977 413.142 138.617 413.142 144.332V155.562C413.142 158.197 411.004 160.336 408.371 160.336H369.924C367.291 160.336 365.154 158.196 365.154 155.562V144.332C365.154 138.617 369.791 133.977 375.501 133.977Z" fill="white"/>
<path d="M408.371 160.961H369.924C366.949 160.961 364.529 158.539 364.529 155.562V144.332C364.529 138.278 369.451 133.353 375.501 133.353H402.794C408.844 133.353 413.765 138.278 413.765 144.332V155.562C413.765 158.539 411.345 160.961 408.371 160.961ZM375.501 134.602C370.139 134.602 365.778 138.967 365.778 144.332V155.562C365.778 157.85 367.638 159.711 369.924 159.711H408.371C410.657 159.711 412.517 157.85 412.517 155.562V144.332C412.517 138.967 408.155 134.602 402.794 134.602H375.501Z" fill="#1E1E1E"/>
<path d="M345.146 219.24H433.299V271.324H345.146V219.24Z" fill="#FAB222"/>
<path d="M433.298 271.949H345.146C344.98 271.949 344.821 271.883 344.704 271.766C344.587 271.649 344.521 271.49 344.521 271.324V219.239C344.521 219.074 344.587 218.915 344.704 218.798C344.821 218.681 344.98 218.615 345.146 218.615H433.298C433.463 218.615 433.622 218.681 433.739 218.798C433.856 218.915 433.922 219.074 433.922 219.239V271.324C433.922 271.49 433.856 271.649 433.739 271.766C433.622 271.883 433.463 271.949 433.298 271.949ZM345.77 270.699H432.674V219.864H345.77V270.699ZM370.976 160.961C370.811 160.961 370.652 160.895 370.535 160.778C370.418 160.661 370.352 160.502 370.352 160.336V150.922C370.352 150.757 370.418 150.598 370.535 150.481C370.652 150.363 370.811 150.298 370.976 150.298C371.142 150.298 371.301 150.363 371.418 150.481C371.535 150.598 371.6 150.757 371.6 150.922V160.336C371.6 160.502 371.535 160.661 371.418 160.778C371.301 160.895 371.142 160.961 370.976 160.961ZM407.124 160.961C406.958 160.961 406.8 160.895 406.683 160.778C406.566 160.661 406.5 160.502 406.5 160.336V150.922C406.5 150.757 406.566 150.598 406.683 150.481C406.8 150.363 406.958 150.298 407.124 150.298C407.29 150.298 407.448 150.363 407.565 150.481C407.682 150.598 407.748 150.757 407.748 150.922V160.336C407.748 160.502 407.682 160.661 407.565 160.778C407.448 160.895 407.29 160.961 407.124 160.961ZM399.894 160.961C399.729 160.961 399.57 160.895 399.453 160.778C399.336 160.661 399.27 160.502 399.27 160.336V150.922C399.27 150.757 399.336 150.598 399.453 150.481C399.57 150.363 399.729 150.298 399.894 150.298C400.06 150.298 400.219 150.363 400.336 150.481C400.453 150.598 400.519 150.757 400.519 150.922V160.336C400.519 160.502 400.453 160.661 400.336 160.778C400.219 160.895 400.06 160.961 399.894 160.961ZM392.665 160.961C392.499 160.961 392.341 160.895 392.223 160.778C392.106 160.661 392.041 160.502 392.041 160.336V150.922C392.041 150.757 392.106 150.598 392.223 150.481C392.341 150.363 392.499 150.298 392.665 150.298C392.83 150.298 392.989 150.363 393.106 150.481C393.223 150.598 393.289 150.757 393.289 150.922V160.336C393.289 160.502 393.223 160.661 393.106 160.778C392.989 160.895 392.83 160.961 392.665 160.961ZM385.435 160.961C385.27 160.961 385.111 160.895 384.994 160.778C384.877 160.661 384.811 160.502 384.811 160.336V150.922C384.811 150.757 384.877 150.598 384.994 150.481C385.111 150.363 385.27 150.298 385.435 150.298C385.601 150.298 385.76 150.363 385.877 150.481C385.994 150.598 386.06 150.757 386.06 150.922V160.336C386.06 160.502 385.994 160.661 385.877 160.778C385.76 160.895 385.601 160.961 385.435 160.961ZM378.206 160.961C378.04 160.961 377.881 160.895 377.764 160.778C377.647 160.661 377.582 160.502 377.582 160.336V150.922C377.582 150.757 377.647 150.598 377.764 150.481C377.881 150.363 378.04 150.298 378.206 150.298C378.371 150.298 378.53 150.363 378.647 150.481C378.764 150.598 378.83 150.757 378.83 150.922V160.336C378.83 160.502 378.764 160.661 378.647 160.778C378.53 160.895 378.371 160.961 378.206 160.961Z" fill="#1E1E1E"/>
</g>
<g clip-path="url(#clip2_1_2625)">
<path d="M254.299 14.6384C255.122 13.6373 257.143 12.9918 258.674 14.4073C259.8 11.4792 260.179 9.86078 260.179 9.86078L255.269 11.0237L254.299 14.6384Z" fill="#1E1E1E"/>
<path d="M254.299 15.1899C254.214 15.1899 254.13 15.1704 254.054 15.1329C253.978 15.0955 253.912 15.0411 253.86 14.974C253.809 14.9069 253.773 14.8288 253.757 14.7459C253.74 14.6629 253.743 14.5772 253.765 14.4955L254.735 10.8808C254.761 10.7847 254.812 10.6972 254.884 10.6279C254.955 10.5585 255.044 10.5097 255.141 10.4868L260.052 9.32388C260.143 9.30223 260.239 9.30427 260.329 9.32981C260.42 9.35535 260.503 9.40355 260.569 9.46983C260.636 9.53612 260.685 9.61829 260.711 9.70857C260.736 9.79885 260.739 9.89425 260.717 9.98571C260.702 10.0533 260.318 11.6748 259.191 14.6047C259.158 14.6889 259.106 14.7639 259.038 14.8232C258.97 14.8824 258.888 14.9241 258.8 14.9445C258.712 14.9649 258.62 14.9635 258.533 14.9404C258.445 14.9173 258.365 14.8731 258.299 14.8118C257.64 14.2027 256.94 14.1131 256.469 14.145C255.794 14.1911 255.11 14.522 254.726 14.988C254.674 15.0511 254.609 15.1019 254.535 15.1368C254.461 15.1716 254.381 15.19 254.299 15.1899ZM256.639 13.0365C257.144 13.0365 257.777 13.1429 258.417 13.5257C258.894 12.2401 259.208 11.2556 259.399 10.6122L255.718 11.4839L255.226 13.3191C255.598 13.166 255.992 13.0734 256.394 13.0447C256.472 13.0392 256.554 13.0365 256.64 13.0365H256.639ZM300.19 14.6384C299.366 13.6374 297.346 12.9918 295.814 14.4073C294.688 11.4792 294.31 9.86079 294.31 9.86079L299.22 11.0237L300.19 14.6384Z" fill="#1E1E1E"/>
<path d="M300.19 15.1898C300.108 15.1898 300.027 15.1717 299.953 15.1369C299.879 15.102 299.814 15.0513 299.762 14.9882C299.378 14.5225 298.694 14.1913 298.019 14.1452C297.547 14.1127 296.849 14.2029 296.189 14.812C296.123 14.8733 296.043 14.9174 295.955 14.9406C295.868 14.9637 295.776 14.9651 295.688 14.9447C295.6 14.9242 295.518 14.8826 295.45 14.8233C295.382 14.7641 295.33 14.6891 295.297 14.6049C294.171 11.6749 293.786 10.0537 293.771 9.98616C293.749 9.89467 293.751 9.79921 293.777 9.70885C293.803 9.61849 293.852 9.53623 293.918 9.46989C293.985 9.40355 294.068 9.35533 294.158 9.3298C294.249 9.30428 294.345 9.3023 294.436 9.32406L299.347 10.4869C299.444 10.5099 299.533 10.5587 299.604 10.6281C299.676 10.6975 299.727 10.7849 299.753 10.881L300.723 14.4957C300.745 14.5774 300.748 14.663 300.732 14.746C300.715 14.8289 300.68 14.907 300.628 14.9741C300.576 15.0412 300.51 15.0956 300.434 15.133C300.358 15.1705 300.274 15.1897 300.19 15.1898ZM295.089 10.6121C295.28 11.2555 295.594 12.24 296.072 13.5256C296.82 13.0775 297.56 13.0085 298.094 13.0446C298.496 13.0732 298.891 13.1659 299.263 13.319L298.771 11.4838L295.09 10.6121H295.089Z" fill="#1E1E1E"/>
<path d="M295.058 8.90822V6.72418L277.24 7.19298L259.427 6.72418V8.16091H258.764L258.674 14.4069L261.038 15.4546L261.039 15.4537C261.167 15.5054 261.304 15.532 261.443 15.532C263.679 15.532 263.679 12.7496 265.918 12.7496C266.234 12.7496 266.503 12.8064 266.742 12.9015L267.293 14.4053L269.48 15.3445C269.489 15.3487 269.498 15.3522 269.507 15.3561L269.551 15.3749L269.552 15.3738C269.794 15.4725 270.069 15.5315 270.39 15.5315C272.627 15.5315 272.627 12.749 274.863 12.749C275.451 12.749 275.883 12.9421 276.243 13.2256L276.323 14.4464L278.384 15.3252C278.436 15.3498 278.489 15.3724 278.543 15.3931L278.571 15.4049L278.572 15.4044C278.816 15.4909 279.073 15.534 279.333 15.5315C281.569 15.5315 281.569 12.749 283.805 12.749C284.626 12.749 285.145 13.1241 285.584 13.5987L285.415 14.507L287.404 15.3608L287.404 15.36C287.655 15.4672 287.94 15.5312 288.277 15.5312C290.514 15.5312 290.514 12.7488 292.75 12.7488C293.955 12.7488 294.511 13.554 295.116 14.2958C295.077 12.5006 295.058 10.7054 295.058 8.90739L295.058 8.90822Z" fill="#1E1E1E"/>
<path d="M288.278 16.0836C287.902 16.0836 287.546 16.0157 287.221 15.882C287.209 15.8779 287.197 15.8733 287.185 15.8682L285.197 15.0141C285.082 14.9647 284.987 14.8777 284.928 14.7675C284.869 14.6572 284.849 14.5301 284.872 14.4072L284.988 13.7818C284.671 13.487 284.323 13.3011 283.805 13.3011C282.993 13.3011 282.59 13.7514 282 14.4858C281.428 15.1978 280.716 16.0836 279.333 16.0836C278.999 16.0853 278.668 16.0274 278.354 15.9126L278.326 15.9007C278.264 15.8774 278.203 15.8511 278.144 15.8221L276.106 14.9543C276.012 14.9142 275.931 14.849 275.872 14.7658C275.813 14.6826 275.778 14.5847 275.771 14.483L275.709 13.5256C275.454 13.3714 275.185 13.3014 274.863 13.3014C274.051 13.3014 273.648 13.7517 273.058 14.4861C272.486 15.1978 271.774 16.0838 270.391 16.0838C270.028 16.0838 269.697 16.0237 269.381 15.9004C269.364 15.895 269.348 15.889 269.333 15.8825L267.075 14.9124C267.006 14.8826 266.943 14.8392 266.892 14.7846C266.84 14.7301 266.8 14.6657 266.774 14.5953L266.316 13.345C266.186 13.3154 266.052 13.3009 265.918 13.3017C265.105 13.3017 264.701 13.7523 264.11 14.4872C263.538 15.1986 262.826 16.0841 261.443 16.0841C261.25 16.0841 261.058 16.0496 260.874 15.9815C260.854 15.9753 260.834 15.9679 260.814 15.9592L258.45 14.9118C258.351 14.868 258.267 14.7961 258.209 14.7051C258.15 14.6141 258.12 14.508 258.122 14.4L258.211 8.154C258.213 8.00907 258.272 7.87076 258.376 7.769C258.479 7.66723 258.619 7.61018 258.764 7.6102H258.875V6.725C258.875 6.65135 258.89 6.57844 258.918 6.51057C258.947 6.4427 258.989 6.38124 259.042 6.32983C259.094 6.2779 259.157 6.23726 259.226 6.21042C259.295 6.18357 259.368 6.17109 259.442 6.17375L277.24 6.64172L295.044 6.17375C295.118 6.17172 295.191 6.18449 295.26 6.21129C295.329 6.23809 295.391 6.27838 295.444 6.32978C295.497 6.38118 295.539 6.44264 295.568 6.51052C295.596 6.57841 295.611 6.65134 295.611 6.725V8.90904C295.611 10.7018 295.63 12.5108 295.669 14.2856C295.672 14.4005 295.638 14.5133 295.573 14.6083C295.508 14.7033 295.415 14.7756 295.307 14.8153C295.199 14.855 295.081 14.86 294.97 14.8296C294.859 14.7992 294.76 14.7349 294.687 14.6457L294.555 14.4819C293.965 13.7503 293.562 13.3019 292.75 13.3019C291.938 13.3019 291.535 13.7523 290.945 14.4866C290.373 15.1984 289.661 16.0844 288.278 16.0844L288.278 16.0836ZM269.519 15.3233L269.507 15.3566L269.52 15.3255L269.519 15.3233ZM287.593 14.8421L287.622 14.8537C287.822 14.9391 288.036 14.9805 288.278 14.9805C289.089 14.9805 289.492 14.5302 290.082 13.7958C290.654 13.0841 291.367 12.1981 292.75 12.1981C293.525 12.1981 294.089 12.4752 294.536 12.8439C294.516 11.5322 294.505 10.2204 294.505 8.90849V7.29087L277.255 7.7445C277.245 7.74505 277.235 7.74505 277.226 7.7445L259.98 7.29087V8.16117C259.98 8.30745 259.922 8.44773 259.818 8.55116C259.715 8.65459 259.574 8.7127 259.427 8.7127H259.309L259.232 14.0509L261.23 14.9361C261.297 14.9654 261.37 14.9807 261.443 14.9808C262.254 14.9808 262.657 14.5307 263.248 13.7967C263.82 13.0846 264.533 12.1983 265.918 12.1983C266.287 12.1983 266.624 12.2612 266.948 12.3897C267.094 12.4479 267.208 12.5654 267.262 12.7126L267.731 13.9933L269.698 14.8385L269.697 14.8426L269.725 14.8506V14.8501L269.735 14.8542L269.761 14.8639C269.954 14.9425 270.16 14.9808 270.391 14.9808C271.202 14.9808 271.605 14.5305 272.195 13.7961C272.767 13.0844 273.48 12.1983 274.863 12.1983C275.514 12.1983 276.077 12.393 276.585 12.7932C276.708 12.8902 276.785 13.0344 276.795 13.1903L276.853 14.073L278.602 14.8186C278.662 14.847 278.7 14.8628 278.738 14.8774L278.757 14.8854L278.76 14.8862C278.936 14.9496 279.123 14.9805 279.332 14.9805C280.144 14.9805 280.547 14.5302 281.137 13.7958C281.709 13.0841 282.421 12.1981 283.805 12.1981C284.899 12.1981 285.547 12.7468 285.99 13.2253C286.108 13.353 286.159 13.5289 286.127 13.6999L286.039 14.1753L287.592 14.8423L287.593 14.8421ZM328.679 293.856V303.323C328.679 308.265 324.668 312.269 319.715 312.269H234.768C229.817 312.269 225.801 308.265 225.801 303.323V293.856C225.801 289.014 227.457 284.318 230.495 280.537L234.16 275.973C241.07 267.367 244.835 256.67 244.835 245.645C244.835 243.433 244.686 241.23 244.382 239.043C244.083 236.859 243.633 234.697 243.036 232.568L240.034 221.877C237.304 212.147 235.275 202.235 233.964 192.216C232.771 183.118 232.172 173.953 232.172 164.777C232.172 152.553 233.234 140.378 235.329 128.382C235.423 127.847 235.517 127.312 235.617 126.777C237.711 115.314 240.751 104.043 244.708 93.0792C249.576 79.5779 253.261 65.7098 255.718 51.6294C256.295 48.3374 256.805 45.034 257.247 41.7212H297.239C299.576 59.2363 303.779 76.4529 309.775 93.0792C313.729 104.043 316.769 115.314 318.864 126.777C318.963 127.312 319.06 127.847 319.154 128.382C321.246 140.378 322.308 152.553 322.308 164.777C322.31 174.417 321.651 184.045 320.334 193.595C319.02 203.145 317.054 212.594 314.449 221.877L311.447 232.568C310.253 236.825 309.647 241.225 309.648 245.645C309.648 251.157 310.587 256.59 312.393 261.716C314.2 266.843 316.871 271.671 320.326 275.973L323.991 280.537C327.027 284.316 328.681 289.014 328.679 293.856Z" fill="#1E1E1E"/>
<path d="M319.715 312.821H234.768C229.519 312.821 225.248 308.56 225.248 303.323V293.857C225.248 288.91 226.958 284.057 230.063 280.192L233.729 275.628C240.534 267.152 244.283 256.504 244.283 245.645C244.283 243.453 244.132 241.258 243.835 239.119C243.538 236.957 243.093 234.818 242.504 232.717L239.502 222.026C236.767 212.27 234.733 202.332 233.416 192.287C232.222 183.165 231.622 173.976 231.62 164.777C231.62 152.588 232.685 140.31 234.785 128.288C234.879 127.75 234.974 127.213 235.073 126.677C237.176 115.184 240.224 103.884 244.188 92.892C249.034 79.453 252.73 65.5383 255.174 51.5345C257.389 38.8639 258.613 26.0408 258.837 13.1809C258.863 11.7567 258.876 10.3323 258.875 8.90794V6.7239C258.875 6.65025 258.89 6.57734 258.919 6.50947C258.947 6.4416 258.989 6.38014 259.042 6.32873C259.095 6.27681 259.157 6.23616 259.226 6.20932C259.295 6.18247 259.369 6.16999 259.442 6.17265L277.241 6.64062L295.044 6.17265C295.118 6.17062 295.191 6.18339 295.26 6.21019C295.329 6.23699 295.392 6.27728 295.444 6.32868C295.497 6.38008 295.539 6.44154 295.568 6.50943C295.597 6.57731 295.611 6.65024 295.611 6.7239V8.90794C295.611 10.7007 295.631 12.5097 295.669 14.2845C296.252 41.1471 301.173 67.5944 310.295 92.8923C314.257 103.886 317.305 115.186 319.408 126.678C319.507 127.213 319.604 127.75 319.699 128.287C321.797 140.317 322.861 152.594 322.861 164.777C322.861 173.976 322.257 183.232 321.068 192.287C319.75 202.332 317.717 212.27 314.981 222.026L311.98 232.717C310.799 236.925 310.2 241.275 310.2 245.645C310.197 251.056 311.115 256.429 312.914 261.534C314.712 266.64 317.364 271.406 320.757 275.628L324.423 280.192C327.524 284.052 329.232 288.905 329.232 293.857V303.323C329.232 308.56 324.963 312.821 319.715 312.821H319.715ZM259.98 7.29059V8.90822C259.98 10.4484 259.968 11.8528 259.942 13.201C259.717 26.1177 258.487 38.9974 256.262 51.724C253.808 65.7901 250.095 79.7665 245.228 93.2657C241.284 104.201 238.252 115.443 236.16 126.876C236.061 127.411 235.967 127.944 235.873 128.478C233.782 140.465 232.729 152.61 232.725 164.778C232.725 173.893 233.326 183.1 234.511 192.144C235.822 202.137 237.845 212.023 240.566 221.728L243.568 232.42C244.171 234.569 244.626 236.757 244.929 238.969C245.235 241.181 245.388 243.412 245.388 245.645C245.388 256.754 241.553 267.647 234.591 276.318L230.925 280.882C227.977 284.552 226.353 289.159 226.353 293.857V303.323C226.353 307.952 230.127 311.718 234.767 311.718H319.715C324.353 311.718 328.127 307.952 328.127 303.323V293.857C328.127 289.155 326.505 284.547 323.56 280.882L319.894 276.318C316.423 271.999 313.71 267.123 311.871 261.899C310.031 256.677 309.092 251.181 309.095 245.645C309.095 241.174 309.707 236.725 310.915 232.42L313.917 221.728C316.637 212.023 318.661 202.136 319.971 192.144C321.154 183.136 321.755 173.929 321.755 164.778C321.755 152.657 320.696 140.444 318.609 128.477C318.515 127.944 318.419 127.411 318.32 126.878C316.228 115.445 313.196 104.202 309.254 93.2657C300.092 67.8555 295.149 41.2905 294.564 14.3085C294.525 12.5087 294.505 10.7085 294.505 8.90822V7.29059L277.255 7.74422C277.245 7.74478 277.235 7.74478 277.226 7.74422L259.98 7.29059Z" fill="#1E1E1E"/>
<path d="M254.571 276.619C254.478 276.619 254.387 276.596 254.306 276.551C254.225 276.507 254.156 276.443 254.106 276.366C254.056 276.288 254.026 276.199 254.02 276.107C254.013 276.015 254.03 275.923 254.068 275.839C258.107 266.987 260.242 257.139 260.242 247.358C260.242 241.404 259.477 235.488 257.968 229.773L254.968 218.389C250.065 199.781 247.578 180.554 247.578 161.242C247.578 136.711 251.543 112.569 259.363 89.4866C263.085 78.4953 266.718 66.7472 266.718 54.5996C266.718 54.4533 266.776 54.313 266.879 54.2096C266.983 54.1062 267.124 54.0481 267.27 54.0481C267.417 54.0481 267.558 54.1062 267.661 54.2096C267.765 54.313 267.823 54.4533 267.823 54.5996C267.823 66.9143 264.161 78.7611 260.41 89.8396C252.629 112.808 248.684 136.831 248.684 161.242C248.684 180.459 251.158 199.592 256.038 218.109L259.038 229.492C260.57 235.299 261.347 241.31 261.347 247.358C261.347 257.295 259.178 267.302 255.075 276.296C255.031 276.392 254.96 276.474 254.871 276.531C254.781 276.589 254.677 276.619 254.571 276.619L254.571 276.619ZM299.912 276.619C299.805 276.619 299.701 276.588 299.612 276.531C299.523 276.474 299.452 276.392 299.408 276.295C295.302 267.297 293.133 257.291 293.133 247.358C293.133 241.321 293.91 235.31 295.442 229.492L298.445 218.109C303.323 199.599 305.795 180.466 305.795 161.241C305.795 136.824 301.851 112.801 294.072 89.8396C290.005 77.8376 286.355 66.1108 286.355 54.5993C286.355 54.4531 286.413 54.3128 286.517 54.2093C286.62 54.1059 286.761 54.0478 286.908 54.0478C287.054 54.0478 287.195 54.1059 287.298 54.2093C287.402 54.3128 287.46 54.4531 287.46 54.5993C287.46 65.9434 291.083 77.5745 295.119 89.4863C302.937 112.562 306.901 136.704 306.901 161.241C306.901 180.561 304.416 199.788 299.514 218.389L296.511 229.773C295.001 235.513 294.237 241.423 294.238 247.358C294.238 257.134 296.374 266.983 300.414 275.838C300.453 275.922 300.47 276.015 300.463 276.107C300.456 276.199 300.427 276.288 300.377 276.366C300.327 276.443 300.258 276.507 300.176 276.551C300.095 276.596 300.004 276.619 299.912 276.619ZM297.627 5.45678C297.188 4.03625 296.304 2.79339 295.106 1.91056C293.907 1.02773 292.456 0.551421 290.966 0.551514H263.52C262.03 0.551465 260.579 1.02779 259.38 1.91062C258.182 2.79344 257.298 4.03628 256.86 5.45678C255.917 8.50892 254.956 12.1906 254.298 14.638C257.685 8.22819 257.115 14.638 259.352 14.638C261.589 14.638 261.589 11.857 263.826 11.857C266.062 11.857 266.062 14.638 268.299 14.638C270.535 14.638 270.535 11.857 272.771 11.857C275.008 11.857 275.007 14.638 277.243 14.638C279.478 14.638 279.478 11.857 281.714 11.857C283.95 11.857 283.951 14.638 286.187 14.638C288.423 14.638 288.423 11.857 290.66 11.857C292.897 11.857 292.897 14.638 295.134 14.638C297.37 14.638 296.801 8.22819 300.188 14.638C299.53 12.1904 298.569 8.50892 297.626 5.45678H297.627Z" fill="#FAB222"/>
<path d="M300.19 15.1898C300.09 15.1898 299.991 15.1624 299.905 15.1106C299.818 15.0588 299.748 14.9844 299.701 14.8956C298.411 12.4543 297.921 12.3453 297.87 12.3409C297.731 12.3939 297.454 12.9324 297.289 13.2543C296.868 14.0711 296.293 15.1901 295.135 15.1901C293.752 15.1901 293.04 14.3046 292.467 13.5932C291.877 12.8591 291.474 12.409 290.662 12.409C289.85 12.409 289.447 12.8591 288.856 13.5932C288.284 14.3046 287.572 15.1901 286.189 15.1901C284.806 15.1901 284.094 14.3046 283.522 13.5932C282.931 12.8591 282.528 12.409 281.716 12.409C280.905 12.409 280.502 12.8591 279.912 13.5932C279.34 14.3046 278.628 15.1901 277.245 15.1901C275.862 15.1901 275.15 14.3046 274.578 13.5932C273.988 12.8591 273.585 12.409 272.774 12.409C271.962 12.409 271.559 12.8591 270.969 13.5932C270.397 14.3046 269.685 15.1901 268.301 15.1901C266.918 15.1901 266.206 14.3046 265.634 13.5932C265.043 12.8591 264.64 12.409 263.828 12.409C263.016 12.409 262.613 12.8591 262.023 13.5932C261.451 14.3046 260.738 15.1901 259.355 15.1901C258.197 15.1901 257.622 14.0711 257.202 13.254C257.036 12.9324 256.759 12.3941 256.608 12.3395C256.569 12.3453 256.08 12.4545 254.79 14.8959C254.726 15.0158 254.621 15.1082 254.494 15.1555C254.366 15.2027 254.226 15.2015 254.099 15.152C253.973 15.1026 253.869 15.0083 253.808 14.8873C253.746 14.7663 253.732 14.627 253.767 14.496L254.082 13.3202C254.727 10.9053 255.53 7.90032 256.334 5.29492C257.311 2.12778 260.199 0 263.521 0H290.968C294.29 0 297.179 2.12806 298.156 5.29464C298.959 7.89481 299.761 10.8951 300.406 13.3055L300.724 14.4952C300.746 14.5769 300.749 14.6626 300.732 14.7455C300.716 14.8285 300.68 14.9066 300.629 14.9737C300.577 15.0409 300.511 15.0953 300.435 15.1328C300.359 15.1702 300.275 15.1898 300.19 15.1898ZM290.662 11.3057C292.045 11.3057 292.757 12.1912 293.33 12.9027C293.92 13.6367 294.324 14.0868 295.135 14.0868C295.583 14.0868 295.902 13.5328 296.305 12.7502C296.686 12.0089 297.081 11.242 297.865 11.2379H297.871C298.183 11.2379 298.489 11.3639 298.815 11.6427C298.285 9.68202 297.691 7.53742 297.099 5.61949C296.265 2.91812 293.801 1.10305 290.967 1.10305H263.521C260.687 1.10305 258.223 2.91812 257.389 5.61949C256.796 7.53769 256.203 9.68147 255.674 11.6427C256.001 11.3622 256.317 11.2346 256.623 11.2379C257.408 11.2423 257.802 12.0089 258.184 12.7502C258.586 13.5328 258.906 14.0868 259.353 14.0868C260.165 14.0868 260.568 13.6367 261.159 12.9027C261.731 12.1912 262.443 11.3057 263.827 11.3057C265.21 11.3057 265.922 12.1912 266.494 12.9027C267.085 13.6367 267.488 14.0868 268.3 14.0868C269.111 14.0868 269.515 13.6367 270.105 12.9027C270.677 12.1912 271.389 11.3057 272.772 11.3057C274.155 11.3057 274.867 12.1912 275.439 12.9027C276.029 13.6367 276.432 14.0868 277.244 14.0868C278.055 14.0868 278.458 13.6367 279.048 12.9027C279.62 12.1912 280.332 11.3057 281.715 11.3057C283.098 11.3057 283.81 12.1912 284.382 12.9027C284.973 13.6367 285.376 14.0868 286.187 14.0868C286.999 14.0868 287.402 13.6367 287.992 12.9027C288.564 12.1912 289.277 11.3057 290.66 11.3057H290.662Z" fill="#1E1E1E"/>
<path d="M277.24 276.62C277.094 276.62 276.953 276.562 276.849 276.458C276.746 276.355 276.688 276.215 276.688 276.068V54.5996C276.688 54.4533 276.746 54.3131 276.849 54.2096C276.953 54.1062 277.094 54.0481 277.24 54.0481C277.387 54.0481 277.528 54.1062 277.631 54.2096C277.735 54.3131 277.793 54.4533 277.793 54.5996V276.068C277.793 276.215 277.735 276.355 277.631 276.458C277.528 276.562 277.387 276.62 277.24 276.62Z" fill="#FAB222"/>
<path d="M232.172 164.776C232.172 173.965 232.772 183.126 233.963 192.216H320.518C321.712 183.118 322.311 173.952 322.309 164.776C322.309 152.555 321.248 140.379 319.153 128.383C319.059 127.848 318.963 127.312 318.863 126.777H235.618C235.518 127.313 235.422 127.848 235.329 128.383C233.229 140.401 232.172 152.577 232.172 164.776Z" fill="#FAB222"/>
<path d="M320.518 192.768H233.963C233.829 192.768 233.699 192.719 233.598 192.631C233.497 192.542 233.432 192.42 233.415 192.288C232.221 183.165 231.622 173.975 231.619 164.775C231.619 152.586 232.684 140.31 234.784 128.289C234.878 127.751 234.974 127.214 235.075 126.676C235.098 126.55 235.166 126.435 235.265 126.353C235.364 126.271 235.489 126.225 235.618 126.225H318.863C319.13 126.225 319.358 126.415 319.407 126.676C319.506 127.214 319.604 127.751 319.697 128.289C321.8 140.338 322.859 152.545 322.862 164.775C322.862 173.961 322.258 183.217 321.067 192.288C321.049 192.421 320.984 192.542 320.883 192.631C320.783 192.719 320.653 192.768 320.518 192.768ZM234.449 191.665H320.033C321.18 182.747 321.755 173.766 321.756 164.775C321.756 152.649 320.697 140.437 318.608 128.478C318.541 128.095 318.472 127.712 318.402 127.329H236.078C236.008 127.711 235.94 128.095 235.873 128.478C233.782 140.465 232.728 152.608 232.725 164.775C232.727 173.766 233.303 182.747 234.449 191.665Z" fill="#1E1E1E"/>
<path d="M277.241 173.506C294.814 173.506 309.059 167.234 309.059 159.497C309.059 151.76 294.814 145.488 277.241 145.488C259.668 145.488 245.422 151.76 245.422 159.497C245.422 167.234 259.668 173.506 277.241 173.506Z" fill="white"/>
<path d="M278.413 173.506C295.021 173.506 308.483 167.791 308.483 160.74C308.483 153.689 295.021 147.973 278.413 147.973C261.806 147.973 248.344 153.689 248.344 160.74C248.344 167.791 261.806 173.506 278.413 173.506Z" fill="#FAB222"/>
<path d="M277.241 174.058C268.666 174.058 260.597 172.584 254.518 169.907C248.296 167.168 244.869 163.47 244.869 159.497C244.869 155.523 248.296 151.826 254.518 149.086C260.597 146.41 268.666 144.936 277.241 144.936C285.815 144.936 293.884 146.41 299.963 149.086C306.185 151.826 309.612 155.523 309.612 159.497C309.612 163.47 306.185 167.168 299.963 169.907C293.884 172.584 285.815 174.058 277.241 174.058ZM277.241 146.039C268.817 146.039 260.905 147.48 254.965 150.095C249.167 152.648 245.975 155.987 245.975 159.497C245.975 163.007 249.167 166.346 254.965 168.898C260.905 171.514 268.817 172.955 277.241 172.955C285.664 172.955 293.576 171.514 299.517 168.898C305.314 166.346 308.506 163.007 308.506 159.497C308.506 155.986 305.314 152.648 299.517 150.095C293.576 147.48 285.664 146.039 277.241 146.039Z" fill="#1E1E1E"/>
</g>
<g clip-path="url(#clip3_1_2625)">
<path d="M591.186 262.741H579.549V302.927H591.186C594.558 302.927 597.292 293.931 597.292 282.834C597.292 271.738 594.558 262.741 591.186 262.741Z" fill="#FAB222"/>
<path d="M591.187 303.633H579.55C579.362 303.633 579.182 303.559 579.049 303.427C578.916 303.294 578.842 303.115 578.842 302.927V262.741C578.842 262.554 578.916 262.374 579.049 262.242C579.182 262.11 579.362 262.035 579.55 262.035H591.187C595.613 262.035 598.001 272.751 598.001 282.834C598.001 292.918 595.613 303.633 591.187 303.633ZM580.258 302.222H591.187C593.74 302.222 596.585 294.259 596.585 282.834C596.585 271.409 593.74 263.447 591.187 263.447H580.258V302.221V302.222Z" fill="#1E1E1E"/>
<path d="M579.549 302.927C582.921 302.927 585.655 293.931 585.655 282.834C585.655 271.737 582.921 262.741 579.549 262.741C576.177 262.741 573.443 271.737 573.443 282.834C573.443 293.931 576.177 302.927 579.549 302.927Z" fill="#1E1E1E"/>
<path d="M579.55 303.633C575.124 303.633 572.736 292.917 572.736 282.834C572.736 272.751 575.124 262.035 579.55 262.035C583.976 262.035 586.364 272.751 586.364 282.834C586.364 292.917 583.976 303.633 579.55 303.633ZM579.55 263.447C576.997 263.447 574.153 271.409 574.153 282.834C574.153 294.259 576.997 302.222 579.55 302.222C582.103 302.222 584.947 294.26 584.947 282.834C584.947 271.409 582.103 263.447 579.55 263.447Z" fill="#1E1E1E"/>
<path d="M579.55 297.244C575.712 297.244 572.132 301.963 567.912 306.678C563.695 311.397 558.841 316.115 552.454 316.115V316.119H413.586V316.115C407.999 316.115 403.471 301.215 403.471 282.834C403.471 272.677 404.855 263.585 407.036 257.48C408.799 252.539 411.086 249.553 413.586 249.553H552.451C558.094 249.553 562.541 253.237 566.411 257.349C571.3 262.544 575.266 268.424 579.55 268.424C582.219 275.331 582.127 289.787 579.55 297.244Z" fill="#FAB222"/>
<path d="M566.41 257.349C560.826 257.127 554.338 253.796 548.07 253.47C540.465 253.075 533.303 256.844 525.783 258.062C510.75 260.49 495.554 252.599 480.454 254.578C467.627 256.262 468.2 260.263 446.165 257.522C421.778 254.503 421.452 254.11 417.904 254.741C414.537 255.335 411.854 257.301 407.035 257.48C408.116 254.449 410.347 249.553 413.592 249.553H552.45C558.093 249.553 562.54 253.237 566.41 257.349Z" fill="white"/>
<path d="M552.452 316.824H413.584C413.569 316.824 413.555 316.824 413.541 316.823C406.792 316.751 402.762 299.507 402.762 282.834C402.762 266.162 406.81 248.845 413.584 248.845C413.596 248.845 413.613 248.845 413.626 248.847L552.442 248.846C559.968 248.846 565.308 254.935 570.019 260.307C573.507 264.285 576.519 267.72 579.55 267.72C579.693 267.72 579.833 267.763 579.951 267.844C580.068 267.924 580.159 268.039 580.211 268.172C582.91 275.157 582.915 289.671 580.219 297.473C580.171 297.612 580.081 297.732 579.961 297.818C579.841 297.903 579.697 297.949 579.549 297.949C576.519 297.949 573.507 301.384 570.018 305.362C565.316 310.724 559.987 316.801 552.491 316.823C552.478 316.824 552.465 316.824 552.452 316.824ZM413.622 315.412H552.413C552.426 315.412 552.439 315.411 552.452 315.411C559.325 315.411 564.439 309.579 568.952 304.433C572.491 300.397 575.571 296.886 579.03 296.562C581.389 289.192 581.396 275.76 579.047 269.109C575.581 268.795 572.497 265.279 568.952 261.236C564.439 256.09 559.324 250.258 552.451 250.258H413.593C413.581 250.258 413.563 250.258 413.551 250.257C409.041 250.258 404.178 263.348 404.178 282.835C404.178 302.322 409.041 315.412 413.583 315.412C413.596 315.412 413.609 315.412 413.622 315.413L413.622 315.412Z" fill="#1E1E1E"/>
<path d="M413.584 316.117C419.17 316.117 423.697 301.216 423.697 282.834C423.697 264.452 419.17 249.551 413.584 249.551C407.999 249.551 403.471 264.452 403.471 282.834C403.471 301.216 407.999 316.117 413.584 316.117Z" fill="#FAB222"/>
<path d="M413.584 316.823C406.81 316.823 402.762 299.541 402.762 282.834C402.762 266.127 406.81 248.845 413.584 248.845C420.358 248.845 424.405 266.127 424.405 282.834C424.405 299.541 420.357 316.823 413.584 316.823ZM413.584 250.257C409.041 250.257 404.178 263.347 404.178 282.834C404.178 302.321 409.041 315.411 413.583 315.411C418.125 315.411 422.988 302.321 422.988 282.834C422.988 263.347 418.126 250.257 413.584 250.257Z" fill="#1E1E1E"/>
<path d="M413.584 309.78C409.39 309.78 407.195 296.225 407.195 282.834C407.195 282.647 407.27 282.467 407.403 282.335C407.536 282.203 407.716 282.128 407.904 282.128C408.091 282.128 408.271 282.203 408.404 282.335C408.537 282.467 408.612 282.647 408.612 282.834C408.612 298.654 411.507 308.368 413.584 308.368C415.66 308.368 418.555 298.655 418.555 282.834C418.555 273.748 417.514 265.213 415.837 260.562C415.806 260.475 415.792 260.383 415.796 260.29C415.801 260.197 415.823 260.107 415.863 260.023C415.903 259.939 415.959 259.864 416.027 259.801C416.096 259.739 416.177 259.691 416.264 259.659C416.352 259.628 416.444 259.614 416.537 259.618C416.63 259.622 416.722 259.645 416.806 259.684C416.89 259.724 416.965 259.779 417.028 259.848C417.091 259.917 417.139 259.997 417.17 260.085C418.924 264.951 419.972 273.456 419.972 282.834C419.972 296.224 417.778 309.78 413.584 309.78Z" fill="#1E1E1E"/>
<path d="M481.342 249.552H470.451C470.564 250 470.674 250.473 470.784 250.963C472.172 257.21 472.937 265.155 472.937 273.336C472.937 276.258 475.312 278.63 478.247 278.63C481.182 278.63 483.558 276.258 483.558 273.336C483.558 264.671 482.779 256.392 481.342 249.552Z" fill="#FAB222"/>
<path d="M478.248 279.336C474.929 279.336 472.229 276.644 472.229 273.336C472.229 265.207 471.471 257.316 470.093 251.116C469.99 250.651 469.881 250.187 469.765 249.724C469.739 249.62 469.737 249.511 469.759 249.406C469.781 249.301 469.827 249.202 469.894 249.118C469.96 249.033 470.044 248.965 470.141 248.917C470.238 248.87 470.344 248.846 470.452 248.846H481.342C481.677 248.846 481.967 249.08 482.035 249.407C483.495 256.354 484.267 264.628 484.267 273.336C484.267 276.644 481.567 279.336 478.248 279.336ZM471.35 250.258C471.392 250.439 471.434 250.623 471.476 250.81C472.875 257.108 473.645 265.107 473.645 273.336C473.645 275.865 475.71 277.924 478.248 277.924C480.786 277.924 482.851 275.865 482.851 273.336C482.851 264.957 482.13 256.993 480.765 250.257H471.35L471.35 250.258Z" fill="#1E1E1E"/>
<path d="M502.748 249.552H491.857C491.971 250.004 492.08 250.473 492.19 250.967C493.578 257.21 494.343 265.158 494.343 273.336C494.343 276.258 496.722 278.63 499.654 278.63C502.585 278.63 504.964 276.258 504.964 273.336C504.964 264.671 504.185 256.392 502.748 249.552Z" fill="#FAB222"/>
<path d="M499.654 279.336C496.335 279.336 493.636 276.644 493.636 273.336C493.636 265.206 492.877 257.316 491.5 251.12C491.396 250.653 491.287 250.187 491.171 249.723C491.145 249.619 491.144 249.51 491.166 249.405C491.188 249.3 491.234 249.202 491.301 249.117C491.367 249.033 491.451 248.964 491.548 248.917C491.645 248.87 491.751 248.846 491.859 248.846H502.749C503.084 248.846 503.374 249.08 503.442 249.407C504.902 256.354 505.674 264.628 505.674 273.336C505.674 276.644 502.974 279.336 499.655 279.336H499.654ZM492.756 250.257C492.799 250.44 492.84 250.626 492.882 250.815C494.281 257.107 495.052 265.106 495.052 273.336C495.052 275.866 497.117 277.924 499.654 277.924C502.192 277.924 504.257 275.866 504.257 273.336C504.257 264.958 503.536 256.993 502.171 250.257H492.756H492.756Z" fill="#1E1E1E"/>
<path d="M524.154 249.552H513.263C513.377 250 513.487 250.473 513.596 250.963C514.984 257.21 515.749 265.155 515.749 273.336C515.749 276.258 518.128 278.63 521.06 278.63C523.991 278.63 526.37 276.258 526.37 273.336C526.37 264.671 525.591 256.391 524.154 249.552Z" fill="#FAB222"/>
<path d="M521.059 279.336C517.74 279.336 515.04 276.644 515.04 273.336C515.04 265.207 514.281 257.316 512.904 251.116C512.801 250.651 512.692 250.187 512.576 249.724C512.55 249.62 512.548 249.511 512.57 249.406C512.592 249.301 512.638 249.202 512.704 249.118C512.77 249.033 512.855 248.965 512.952 248.917C513.049 248.87 513.155 248.846 513.263 248.846H524.153C524.488 248.846 524.778 249.08 524.846 249.407C526.306 256.354 527.078 264.628 527.078 273.336C527.078 276.644 524.378 279.336 521.059 279.336ZM514.161 250.258C514.203 250.439 514.245 250.623 514.287 250.81C515.686 257.108 516.456 265.107 516.456 273.336C516.456 275.865 518.521 277.924 521.059 277.924C523.597 277.924 525.661 275.865 525.661 273.336C525.661 264.957 524.941 256.993 523.576 250.257H514.161L514.161 250.258ZM475.34 273.337C475.34 265.156 474.576 257.211 473.188 250.964C473.078 250.474 472.968 250.001 472.855 249.553H470.451C470.564 250.001 470.674 250.474 470.784 250.964C472.172 257.211 472.936 265.156 472.936 273.337C472.936 276.259 475.312 278.631 478.247 278.631C478.661 278.631 479.062 278.585 479.447 278.493C477.093 277.95 475.34 275.846 475.34 273.337Z" fill="#1E1E1E"/>
<path d="M478.248 279.337C474.929 279.337 472.229 276.645 472.229 273.337C472.229 265.208 471.471 257.317 470.093 251.118C469.99 250.652 469.881 250.188 469.765 249.725C469.739 249.621 469.737 249.512 469.759 249.407C469.781 249.302 469.827 249.204 469.894 249.119C469.96 249.034 470.044 248.966 470.141 248.919C470.238 248.872 470.344 248.847 470.452 248.847H472.856C473.181 248.847 473.463 249.067 473.542 249.381C473.657 249.835 473.769 250.315 473.879 250.812C475.279 257.109 476.049 265.109 476.049 273.337C476.049 275.485 477.513 277.322 479.608 277.806C479.763 277.842 479.902 277.929 480.001 278.053C480.101 278.178 480.155 278.332 480.156 278.491C480.156 278.65 480.103 278.805 480.004 278.93C479.905 279.055 479.767 279.143 479.612 279.18C479.165 279.285 478.707 279.337 478.248 279.336L478.248 279.337ZM471.35 250.259C471.392 250.44 471.434 250.624 471.476 250.811C472.875 257.109 473.645 265.108 473.645 273.337C473.645 275.173 474.733 276.76 476.3 277.493C475.256 276.408 474.633 274.938 474.633 273.337C474.633 265.208 473.875 257.317 472.497 251.117C472.432 250.824 472.366 250.537 472.3 250.258H471.35L471.35 250.259ZM496.747 273.337C496.747 265.16 495.982 257.212 494.594 250.968C494.485 250.474 494.375 250.005 494.262 249.553H491.858C491.971 250.005 492.081 250.474 492.191 250.968C493.578 257.212 494.343 265.16 494.343 273.337C494.343 276.259 496.722 278.631 499.654 278.631C500.068 278.631 500.472 278.585 500.858 278.493C498.503 277.953 496.747 275.846 496.747 273.337Z" fill="#1E1E1E"/>
<path d="M499.654 279.336C496.335 279.336 493.635 276.645 493.635 273.337C493.635 265.207 492.877 257.317 491.499 251.121C491.392 250.633 491.284 250.17 491.171 249.724C491.145 249.62 491.143 249.512 491.166 249.407C491.188 249.302 491.234 249.203 491.3 249.119C491.366 249.034 491.451 248.966 491.548 248.919C491.644 248.871 491.751 248.847 491.858 248.847H494.262C494.587 248.847 494.871 249.067 494.949 249.382C495.063 249.84 495.175 250.315 495.286 250.816C496.685 257.109 497.455 265.107 497.455 273.337C497.455 275.453 498.953 277.332 501.017 277.805C501.172 277.841 501.311 277.928 501.411 278.053C501.51 278.177 501.565 278.331 501.566 278.49C501.566 278.65 501.513 278.804 501.414 278.929C501.316 279.054 501.178 279.143 501.022 279.18C500.574 279.285 500.115 279.338 499.654 279.336ZM492.756 250.259C492.799 250.441 492.84 250.626 492.882 250.815C494.281 257.109 495.052 265.107 495.052 273.337C495.052 275.172 496.138 276.759 497.704 277.492C496.662 276.408 496.039 274.939 496.039 273.337C496.039 265.207 495.281 257.317 493.903 251.121C493.838 250.825 493.772 250.538 493.706 250.259H492.756L492.756 250.259ZM518.153 273.337C518.153 265.156 517.389 257.211 516.001 250.964C515.891 250.474 515.781 250.001 515.668 249.553H513.264C513.377 250.001 513.487 250.474 513.597 250.964C514.985 257.211 515.749 265.156 515.749 273.337C515.749 276.259 518.129 278.631 521.06 278.631C521.474 278.631 521.878 278.585 522.264 278.493C519.909 277.953 518.153 275.846 518.153 273.337Z" fill="#1E1E1E"/>
<path d="M521.06 279.337C517.741 279.337 515.041 276.645 515.041 273.337C515.041 265.207 514.282 257.315 512.905 251.117C512.797 250.634 512.689 250.168 512.577 249.726C512.551 249.622 512.548 249.513 512.571 249.408C512.593 249.302 512.639 249.204 512.705 249.119C512.839 248.947 513.045 248.847 513.263 248.847H515.667C515.825 248.847 515.978 248.899 516.103 248.996C516.227 249.093 516.315 249.228 516.354 249.38C516.469 249.835 516.58 250.314 516.691 250.811C518.09 257.109 518.861 265.108 518.861 273.337C518.861 275.453 520.358 277.332 522.422 277.805C522.578 277.841 522.716 277.928 522.816 278.052C522.916 278.177 522.97 278.331 522.971 278.49C522.972 278.649 522.918 278.804 522.82 278.929C522.721 279.054 522.583 279.142 522.428 279.179C521.979 279.285 521.52 279.338 521.06 279.337ZM514.162 250.259C514.204 250.44 514.246 250.624 514.287 250.811C515.687 257.107 516.457 265.107 516.457 273.336C516.457 275.172 517.544 276.759 519.11 277.492C518.067 276.408 517.445 274.938 517.445 273.336C517.445 265.208 516.686 257.316 515.309 251.117C515.243 250.824 515.178 250.537 515.112 250.258H514.162L514.162 250.259ZM478.559 316.118C487.795 316.118 508.37 305.294 514.21 297.335C526.37 280.762 543.442 282.558 535.961 298.164C531.42 307.635 536.192 316.118 546.721 316.118H478.559Z" fill="#1E1E1E"/>
<path d="M546.722 316.824H478.56C478.372 316.824 478.192 316.75 478.059 316.617C477.926 316.485 477.851 316.305 477.851 316.118C477.851 315.931 477.926 315.752 478.059 315.619C478.192 315.487 478.372 315.412 478.56 315.412C487.605 315.412 507.932 304.696 513.639 296.918C521.357 286.403 530.909 283.065 535.687 285.91C539.065 287.922 539.406 292.617 536.6 298.469C534.46 302.933 534.409 307.352 536.459 310.593C538.424 313.701 542.069 315.412 546.722 315.412C546.909 315.412 547.09 315.487 547.222 315.619C547.355 315.752 547.43 315.931 547.43 316.118C547.43 316.305 547.355 316.485 547.222 316.617C547.09 316.75 546.909 316.824 546.722 316.824H546.722ZM486.131 315.412H539.901C537.957 314.484 536.379 313.114 535.261 311.346C532.946 307.686 532.969 302.771 535.323 297.86C537.78 292.735 537.645 288.72 534.961 287.121C530.818 284.653 521.926 288.017 514.783 297.752C510.079 304.162 496.429 312.207 486.131 315.412Z" fill="#1E1E1E"/>
</g>
<g clip-path="url(#clip4_1_2625)">
<path d="M105.144 148.799H206.587V312.097H105.144V148.799Z" fill="#FAB222"/>
<path d="M115.039 148.799H133.157V312.097H115.039V148.799ZM139.624 148.799H146.086V312.097H139.624V148.799Z" fill="white"/>
<path d="M206.588 312.868H105.145C104.941 312.868 104.745 312.787 104.601 312.643C104.456 312.498 104.375 312.302 104.375 312.097V148.799C104.375 148.594 104.456 148.398 104.601 148.253C104.745 148.109 104.941 148.028 105.145 148.028H206.588C206.792 148.028 206.988 148.109 207.132 148.253C207.276 148.398 207.358 148.594 207.358 148.799V312.097C207.358 312.302 207.276 312.498 207.132 312.643C206.988 312.787 206.792 312.868 206.588 312.868ZM105.915 311.327H205.818V149.569H105.915V311.327Z" fill="#1E1E1E"/>
<path d="M105.144 196.427H206.587V264.468H105.144V196.427Z" fill="#FAB222"/>
<path d="M206.588 265.24H105.145C104.941 265.24 104.745 265.158 104.601 265.014C104.456 264.869 104.375 264.673 104.375 264.469V196.428C104.375 196.223 104.456 196.027 104.601 195.883C104.745 195.738 104.941 195.657 105.145 195.657H206.588C206.792 195.657 206.988 195.738 207.132 195.883C207.276 196.027 207.358 196.223 207.358 196.428V264.469C207.358 264.673 207.276 264.869 207.132 265.014C206.988 265.158 206.792 265.24 206.588 265.24ZM105.915 263.698H205.818V197.199H105.915V263.698Z" fill="#1E1E1E"/>
<path d="M105.144 134.36H206.587V162.572H105.144V134.36Z" fill="white"/>
<path d="M206.588 163.344H105.145C104.941 163.344 104.745 163.263 104.601 163.118C104.456 162.973 104.375 162.777 104.375 162.573V134.361C104.375 134.156 104.456 133.96 104.601 133.816C104.745 133.671 104.941 133.59 105.145 133.59H206.588C206.792 133.59 206.988 133.671 207.132 133.816C207.276 133.96 207.358 134.156 207.358 134.361V162.573C207.358 162.777 207.276 162.973 207.132 163.118C206.988 163.263 206.792 163.344 206.588 163.344ZM105.915 161.802H205.818V135.132H105.915V161.802Z" fill="#1E1E1E"/>
<path d="M105.144 140.335L206.587 146.752V134.36L105.144 140.335Z" fill="#1E1E1E"/>
<path d="M206.586 147.523C206.57 147.523 206.554 147.522 206.538 147.521L105.095 141.104C104.899 141.092 104.716 141.005 104.582 140.861C104.449 140.718 104.375 140.529 104.375 140.333C104.375 140.137 104.45 139.949 104.585 139.806C104.719 139.664 104.903 139.578 105.098 139.566L206.541 133.591C206.753 133.578 206.96 133.655 207.114 133.8C207.269 133.946 207.356 134.149 207.356 134.361V146.752C207.356 146.956 207.275 147.152 207.13 147.297C206.986 147.441 206.79 147.522 206.586 147.523ZM117.79 140.362L205.816 145.931V135.178L117.79 140.362Z" fill="#1E1E1E"/>
<path d="M208.667 123.408H103.063C101.191 123.408 99.6738 124.927 99.6738 126.801V136.942C99.6738 138.816 101.191 140.335 103.063 140.335H208.667C210.539 140.335 212.056 138.816 212.056 136.942V126.801C212.056 124.927 210.539 123.408 208.667 123.408Z" fill="white"/>
<path d="M208.668 141.106H103.063C100.77 141.106 98.9043 139.238 98.9043 136.942V126.8C98.9043 124.505 100.77 122.637 103.063 122.637H208.668C210.961 122.637 212.827 124.505 212.827 126.8V136.942C212.827 139.238 210.961 141.106 208.668 141.106ZM103.063 124.179C102.369 124.179 101.703 124.456 101.212 124.947C100.721 125.439 100.445 126.105 100.444 126.8V136.942C100.445 137.637 100.721 138.304 101.212 138.795C101.703 139.287 102.369 139.563 103.063 139.564H208.668C209.362 139.563 210.028 139.287 210.519 138.795C211.01 138.304 211.286 137.637 211.287 136.942V126.8C211.286 126.105 211.01 125.439 210.519 124.947C210.028 124.456 209.362 124.179 208.668 124.179H103.063ZM197.156 143.823V207.404C197.156 212.64 192.817 216.766 187.588 216.643C187.558 216.642 187.528 216.642 187.498 216.642C182.975 216.642 178.51 218.745 175.659 222.698C170.944 229.234 172.41 238.365 178.942 243.089L185.106 247.549C188.837 250.248 191.874 253.794 193.969 257.897C196.064 262.001 197.156 266.543 197.156 271.151V312.1H206.586V143.823H197.156Z" fill="#1E1E1E"/>
<path d="M206.586 312.87H197.156C196.952 312.87 196.756 312.789 196.612 312.645C196.468 312.5 196.386 312.304 196.386 312.099V271.151C196.386 262.077 192.001 253.487 184.655 248.173L178.491 243.714C171.627 238.749 170.077 229.119 175.034 222.246C177.914 218.254 182.573 215.871 187.498 215.871L187.607 215.872C189.971 215.931 192.183 215.058 193.854 213.424C195.487 211.826 196.386 209.688 196.386 207.403V143.823C196.386 143.619 196.468 143.422 196.612 143.278C196.756 143.133 196.952 143.052 197.156 143.052H206.586C206.79 143.052 206.986 143.133 207.13 143.278C207.275 143.422 207.356 143.619 207.356 143.823V312.099C207.356 312.304 207.275 312.5 207.13 312.645C206.986 312.789 206.79 312.87 206.586 312.87ZM197.926 311.329H205.816V144.594H197.926V207.404C197.926 210.108 196.862 212.637 194.93 214.527C192.96 216.454 190.348 217.478 187.57 217.414L187.498 217.413C183.066 217.413 178.874 219.557 176.283 223.15C171.822 229.333 173.217 237.998 179.393 242.464L185.557 246.924C193.302 252.527 197.926 261.584 197.926 271.151V311.329V311.329ZM156.16 241.756H117.373C117.169 241.756 116.973 241.675 116.829 241.531C116.685 241.386 116.603 241.19 116.603 240.985C116.603 240.781 116.685 240.585 116.829 240.44C116.973 240.296 117.169 240.215 117.373 240.215H156.16C156.365 240.215 156.56 240.296 156.705 240.44C156.849 240.585 156.93 240.781 156.93 240.985C156.93 241.19 156.849 241.386 156.705 241.531C156.56 241.675 156.365 241.756 156.16 241.756ZM172.57 254.268H117.373C117.169 254.268 116.973 254.187 116.829 254.042C116.685 253.898 116.603 253.702 116.603 253.497C116.603 253.293 116.685 253.097 116.829 252.952C116.973 252.807 117.169 252.726 117.373 252.726H172.57C172.774 252.726 172.97 252.807 173.115 252.952C173.259 253.097 173.34 253.293 173.34 253.497C173.34 253.702 173.259 253.898 173.115 254.042C172.97 254.187 172.774 254.268 172.57 254.268Z" fill="#1E1E1E"/>
</g>
<g clip-path="url(#clip5_1_2625)">
<path d="M271.549 266.431C287.216 273.898 295.757 289.126 294.329 303.508C293.93 307.537 297.187 313.958 295.161 317.665C293.181 321.287 286.16 321.855 283.132 324.271C271.996 333.159 254.844 333.782 239.56 325.315C222.976 316.127 213.73 299.495 217.358 283.974C217.982 281.302 213.045 275.414 214.405 272.926C215.751 270.463 223.314 271.531 225.198 269.585C236.27 258.143 253.507 257.832 271.549 266.431Z" fill="#FAB222"/>
<path d="M213.293 273.98C213.293 273.447 213.398 272.952 213.643 272.503C214.58 270.789 217.211 270.469 219.997 270.131C221.834 269.908 223.916 269.655 224.575 268.974C235.475 257.71 252.732 256.495 271.921 265.64C287.364 273.001 296.711 288.254 295.194 303.595C295.047 305.073 295.454 306.976 295.885 308.991C296.577 312.23 297.293 315.579 295.921 318.087C294.581 320.539 291.459 321.664 288.439 322.753C286.557 323.431 284.779 324.072 283.671 324.956C272.083 334.206 254.604 334.647 239.141 326.081C221.92 316.54 212.826 299.539 216.511 283.774C216.731 282.834 215.832 280.917 215.039 279.225C214.148 277.324 213.293 275.5 213.293 273.98ZM271.549 266.431L271.178 267.222C252.702 258.416 236.169 259.5 225.82 270.195C224.732 271.319 222.534 271.586 220.205 271.869C218.186 272.114 215.673 272.419 215.165 273.347C214.648 274.293 215.736 276.613 216.611 278.478C217.614 280.618 218.558 282.64 218.203 284.174C214.7 299.165 223.45 315.39 239.978 324.547C254.826 332.773 271.553 332.395 282.591 323.584C283.923 322.521 285.832 321.833 287.853 321.105C290.568 320.126 293.375 319.114 294.398 317.243C295.456 315.307 294.81 312.283 294.185 309.359C293.724 307.205 293.291 305.171 293.464 303.42C294.917 288.814 285.958 274.266 271.177 267.222L271.549 266.431Z" fill="#1E1E1E"/>
<path d="M234.586 279.981C234.586 279.817 234.631 279.657 234.717 279.518C234.803 279.379 234.926 279.267 235.072 279.195C237.401 278.043 238.679 275.073 237.924 272.574C237.889 272.463 237.875 272.347 237.885 272.231C237.895 272.116 237.927 272.003 237.981 271.9C238.034 271.797 238.107 271.706 238.196 271.632C238.285 271.558 238.388 271.502 238.498 271.468C238.608 271.434 238.724 271.423 238.839 271.435C238.954 271.447 239.065 271.481 239.166 271.537C239.268 271.592 239.357 271.667 239.429 271.758C239.501 271.849 239.555 271.953 239.586 272.064C240.58 275.348 238.898 279.252 235.838 280.766C235.705 280.831 235.558 280.861 235.411 280.854C235.264 280.846 235.121 280.801 234.995 280.723C234.87 280.644 234.767 280.535 234.695 280.405C234.624 280.275 234.586 280.129 234.586 279.981ZM237.969 305.986C237.969 305.796 238.031 305.611 238.145 305.459C238.259 305.307 238.419 305.197 238.601 305.145C240.881 304.492 242.896 302.948 244.13 300.91C244.19 300.811 244.268 300.726 244.36 300.658C244.452 300.591 244.557 300.542 244.668 300.515C244.778 300.488 244.894 300.483 245.006 300.5C245.119 300.518 245.227 300.558 245.325 300.618C245.522 300.739 245.663 300.933 245.717 301.159C245.744 301.27 245.749 301.386 245.731 301.5C245.714 301.613 245.674 301.722 245.615 301.82C244.156 304.23 241.772 306.055 239.076 306.828C238.947 306.865 238.81 306.871 238.678 306.846C238.546 306.822 238.421 306.766 238.314 306.684C238.207 306.603 238.12 306.497 238.06 306.376C238 306.255 237.969 306.121 237.969 305.986ZM267.231 284.254C267.231 284.038 267.31 283.822 267.47 283.652C269.325 281.683 270.345 278.89 270.195 276.18C270.182 275.948 270.262 275.721 270.416 275.549C270.569 275.376 270.785 275.272 271.015 275.258C271.129 275.252 271.243 275.268 271.35 275.306C271.458 275.344 271.557 275.403 271.642 275.48C271.727 275.557 271.797 275.65 271.846 275.753C271.895 275.857 271.924 275.969 271.93 276.084C272.1 279.266 270.908 282.545 268.731 284.857C268.611 284.984 268.456 285.072 268.286 285.109C268.117 285.147 267.94 285.132 267.778 285.067C267.617 285.002 267.478 284.89 267.381 284.745C267.283 284.6 267.231 284.429 267.231 284.254ZM266.754 302.982C266.754 302.797 266.812 302.61 266.933 302.451C268.268 300.689 269.213 298.659 269.703 296.498C269.728 296.386 269.775 296.28 269.841 296.186C269.907 296.092 269.99 296.012 270.087 295.951C270.183 295.89 270.291 295.848 270.403 295.829C270.516 295.81 270.631 295.813 270.742 295.838C270.854 295.863 270.959 295.911 271.052 295.977C271.145 296.043 271.225 296.127 271.286 296.225C271.347 296.322 271.388 296.43 271.407 296.543C271.426 296.657 271.423 296.773 271.397 296.885C270.852 299.291 269.8 301.552 268.313 303.515C268.203 303.66 268.05 303.767 267.876 303.82C267.702 303.874 267.516 303.871 267.344 303.812C267.172 303.753 267.022 303.642 266.916 303.493C266.811 303.344 266.754 303.166 266.754 302.982ZM266.385 320.988C266.385 320.803 266.444 320.622 266.553 320.472C266.662 320.322 266.816 320.211 266.992 320.155C269.849 319.243 272.358 317.227 273.875 314.624C273.991 314.423 274.182 314.278 274.405 314.219C274.628 314.161 274.865 314.194 275.064 314.311C275.263 314.429 275.407 314.621 275.465 314.846C275.523 315.07 275.491 315.309 275.374 315.509C273.643 318.481 270.779 320.782 267.517 321.823C267.387 321.864 267.249 321.874 267.114 321.852C266.979 321.83 266.851 321.776 266.741 321.695C266.631 321.613 266.541 321.507 266.479 321.384C266.417 321.262 266.385 321.126 266.385 320.988ZM286.292 297.474C286.292 297.344 286.321 297.215 286.377 297.097C286.433 296.979 286.514 296.875 286.615 296.793C287.815 295.818 288.368 294.091 287.959 292.593C287.925 292.481 287.914 292.364 287.926 292.247C287.938 292.131 287.973 292.019 288.029 291.916C288.085 291.814 288.161 291.724 288.252 291.652C288.343 291.579 288.447 291.526 288.559 291.495C288.671 291.464 288.788 291.456 288.903 291.471C289.018 291.486 289.129 291.524 289.229 291.583C289.329 291.643 289.417 291.721 289.486 291.815C289.556 291.908 289.606 292.015 289.634 292.128C290.221 294.277 289.429 296.755 287.707 298.155C287.58 298.259 287.425 298.324 287.263 298.343C287.1 298.363 286.935 298.335 286.787 298.264C286.639 298.193 286.514 298.081 286.426 297.941C286.339 297.801 286.292 297.64 286.292 297.474Z" fill="#1E1E1E"/>
</g>
<path d="M533.945 167.889C533.945 159.044 531.124 150.858 526.329 144.185C524.291 141.348 521.898 138.785 519.209 136.557C520.289 137.738 521.299 138.983 522.233 140.283C527.028 146.956 529.849 155.143 529.849 163.987C529.849 186.452 511.644 204.662 489.184 204.662C479.339 204.662 470.313 201.163 463.278 195.342C470.713 203.466 481.399 208.563 493.28 208.563C515.74 208.563 533.945 190.353 533.945 167.889L533.945 167.889Z" fill="#1E1E1E"/>
<path d="M462.738 195.342C462.738 195.239 462.768 195.139 462.823 195.052C462.878 194.966 462.956 194.897 463.049 194.853C463.141 194.809 463.245 194.793 463.346 194.806C463.448 194.819 463.544 194.86 463.623 194.926C470.789 200.856 479.867 204.122 489.185 204.122C511.31 204.122 529.31 186.118 529.31 163.987C529.31 155.529 526.711 147.441 521.795 140.599C520.873 139.316 519.877 138.088 518.811 136.922C518.719 136.821 518.668 136.688 518.669 136.551C518.67 136.414 518.723 136.282 518.818 136.183C518.912 136.084 519.041 136.024 519.178 136.016C519.315 136.008 519.45 136.053 519.555 136.141C522.28 138.399 524.704 140.996 526.769 143.87C531.818 150.896 534.486 159.202 534.486 167.889C534.486 190.615 516.002 209.104 493.281 209.104C481.752 209.104 470.671 204.221 462.88 195.706C462.786 195.603 462.738 195.472 462.738 195.342L462.738 195.342ZM530.39 163.987C530.39 186.713 511.906 205.202 489.185 205.202C482.259 205.202 475.462 203.445 469.445 200.165C476.298 205.22 484.661 208.024 493.281 208.024C515.406 208.024 533.406 190.019 533.406 167.889C533.406 159.43 530.808 151.342 525.891 144.501C525.399 143.815 524.885 143.145 524.35 142.491C528.31 148.948 530.39 156.319 530.39 163.988L530.39 163.987Z" fill="#1E1E1E"/>
<path d="M540.774 202.582L580.368 242.185C582.745 244.563 582.745 248.423 580.368 250.8C577.991 253.178 574.131 253.178 571.755 250.8L532.16 211.197L540.774 202.582Z" fill="#FAB222"/>
<path d="M531.619 211.197C531.619 211.126 531.633 211.056 531.66 210.991C531.687 210.925 531.727 210.866 531.777 210.815L540.391 202.2C540.492 202.099 540.629 202.042 540.773 202.042C540.916 202.042 541.053 202.099 541.154 202.2L580.749 241.803C583.334 244.389 583.334 248.597 580.749 251.183C578.163 253.769 573.957 253.769 571.371 251.183L531.777 211.579C531.672 211.474 531.619 211.336 531.619 211.197L531.619 211.197ZM540.773 203.346L532.923 211.197L572.136 250.419C574.3 252.583 577.821 252.583 579.985 250.419C582.149 248.254 582.149 244.732 579.985 242.567L540.773 203.346Z" fill="#1E1E1E"/>
<path d="M526.004 200.056L532.158 211.198L540.771 202.582L529.632 196.426L526.004 200.056Z" fill="#1E1E1E"/>
<path d="M525.464 200.056C525.464 199.916 525.518 199.778 525.622 199.674L529.251 196.044C529.334 195.961 529.442 195.907 529.558 195.891C529.674 195.875 529.792 195.896 529.895 195.953L541.034 202.109C541.107 202.15 541.17 202.207 541.217 202.276C541.265 202.345 541.295 202.424 541.307 202.507C541.319 202.589 541.311 202.674 541.285 202.753C541.258 202.833 541.214 202.905 541.154 202.964L532.541 211.579C532.482 211.639 532.41 211.683 532.33 211.71C532.251 211.736 532.166 211.744 532.084 211.732C532.001 211.721 531.922 211.69 531.853 211.642C531.784 211.595 531.727 211.532 531.686 211.459L525.531 200.317C525.486 200.235 525.464 200.145 525.464 200.056L525.464 200.056ZM529.728 197.096L526.674 200.15L532.284 210.308L539.883 202.708L529.728 197.096L529.728 197.096Z" fill="#1E1E1E"/>
<path d="M541.553 167.889C541.553 141.223 519.94 119.605 493.28 119.605C466.619 119.605 445.007 141.223 445.007 167.889C445.007 194.556 466.619 216.173 493.28 216.173C519.94 216.173 541.553 194.556 541.553 167.889ZM458.083 188.275C454.604 182.282 452.612 175.318 452.612 167.889C452.612 167.333 452.622 166.782 452.645 166.231C452.974 158.023 455.738 150.44 460.228 144.185C467.611 133.908 479.663 127.215 493.28 127.215C506.898 127.215 518.95 133.908 526.329 144.185C531.124 150.859 533.946 159.045 533.946 167.889C533.946 190.354 515.74 208.564 493.28 208.564C478.247 208.564 465.121 200.408 458.083 188.275L458.083 188.275Z" fill="#FAB222"/>
<path d="M453.871 141.947C453.871 141.292 454.069 140.631 454.48 140.059C459.079 133.656 465.242 128.442 472.302 124.983C473.908 124.196 475.849 124.86 476.636 126.467C477.423 128.075 476.759 130.016 475.152 130.803C469.049 133.794 463.72 138.302 459.743 143.84C458.699 145.294 456.674 145.625 455.221 144.581C454.803 144.281 454.462 143.886 454.228 143.427C453.993 142.969 453.871 142.462 453.871 141.947ZM490.041 123.378C490.041 121.588 491.492 120.137 493.281 120.137C500.989 120.137 508.648 122.018 515.429 125.576C521.991 129.019 527.748 134.027 532.079 140.059C533.123 141.513 532.791 143.537 531.337 144.581C529.884 145.625 527.86 145.293 526.816 143.84C519.073 133.056 506.537 126.618 493.281 126.618C491.492 126.618 490.041 125.167 490.041 123.378Z" fill="white"/>
<path d="M444.466 167.889C444.466 140.967 466.363 119.065 493.279 119.065C520.195 119.065 542.092 140.967 542.092 167.889C542.092 194.811 520.195 216.713 493.279 216.713C466.363 216.713 444.466 194.811 444.466 167.889ZM541.012 167.889C541.012 141.563 519.599 120.145 493.279 120.145C466.959 120.145 445.546 141.563 445.546 167.889C445.546 194.215 466.959 215.633 493.279 215.633C519.599 215.633 541.012 194.215 541.012 167.889ZM452.071 167.889C452.071 167.302 452.082 166.752 452.104 166.209C452.427 158.147 455.085 150.422 459.789 143.87C467.523 133.103 480.043 126.674 493.28 126.674C506.517 126.674 519.037 133.102 526.768 143.87C531.816 150.897 534.485 159.202 534.485 167.889C534.485 190.615 516 209.104 493.279 209.104C485.927 209.104 478.709 207.144 472.409 203.435C466.282 199.824 461.187 194.697 457.615 188.547C453.988 182.3 452.071 175.157 452.071 167.889ZM533.405 167.889C533.405 159.43 530.806 151.342 525.89 144.501C518.361 134.015 506.171 127.755 493.279 127.755C480.388 127.755 468.198 134.015 460.666 144.5C456.086 150.88 453.498 158.402 453.184 166.253C453.162 166.781 453.152 167.316 453.152 167.889C453.152 174.966 455.018 181.922 458.549 188.004C465.712 200.352 479.02 208.023 493.279 208.023C515.405 208.023 533.405 190.019 533.405 167.889L533.405 167.889ZM534.661 214.242L534.661 214.224C534.664 214.153 534.68 214.083 534.709 214.018C534.739 213.954 534.781 213.896 534.833 213.847C534.884 213.799 534.945 213.761 535.012 213.736C535.078 213.711 535.149 213.7 535.22 213.702C540.983 213.901 546.444 216.727 549.827 221.263C552.536 224.897 553.823 229.38 554.958 233.335C554.997 233.473 554.98 233.62 554.911 233.746C554.841 233.871 554.725 233.964 554.587 234.003C554.45 234.043 554.302 234.026 554.177 233.956C554.051 233.887 553.959 233.771 553.919 233.633C552.755 229.578 551.552 225.385 548.961 221.909C545.82 217.698 540.54 214.967 535.182 214.782C535.043 214.777 534.91 214.718 534.813 214.618C534.715 214.517 534.661 214.383 534.661 214.242ZM533.417 206.159C533.417 206.048 533.451 205.941 533.514 205.85C533.577 205.76 533.666 205.691 533.769 205.652C533.872 205.614 533.984 205.608 534.091 205.635C534.198 205.662 534.294 205.721 534.366 205.804C534.852 206.364 535.372 206.894 535.924 207.389C539.116 210.277 543.649 212.357 549.034 213.408C550.226 213.641 551.409 213.82 552.817 214.019C552.955 214.043 553.079 214.12 553.161 214.233C553.244 214.347 553.279 214.488 553.26 214.627C553.24 214.766 553.167 214.892 553.057 214.978C552.946 215.064 552.806 215.104 552.666 215.089C551.433 214.915 550.114 214.72 548.827 214.468C543.249 213.38 538.537 211.21 535.2 208.192C534.616 207.667 534.065 207.106 533.55 206.512C533.464 206.414 533.417 206.289 533.417 206.159ZM536.445 204.159C536.445 204.054 536.476 203.951 536.534 203.863C536.591 203.775 536.673 203.706 536.769 203.664C536.865 203.622 536.971 203.609 537.075 203.626C537.178 203.644 537.275 203.691 537.352 203.762C537.724 204.105 538.111 204.43 538.514 204.736C540.904 206.548 543.766 207.679 546.791 208.007C546.933 208.022 547.064 208.093 547.153 208.205C547.243 208.317 547.285 208.46 547.27 208.602C547.254 208.744 547.183 208.875 547.071 208.965C546.959 209.055 546.817 209.096 546.674 209.081C543.455 208.732 540.407 207.527 537.861 205.597C537.431 205.27 537.016 204.922 536.619 204.556C536.564 204.505 536.521 204.444 536.491 204.376C536.461 204.307 536.445 204.233 536.445 204.159ZM552.273 219.366C552.273 218.844 552.372 218.361 552.571 217.93C552.986 217.031 553.818 216.443 554.915 216.276C555.054 216.259 555.195 216.297 555.307 216.382C555.418 216.467 555.493 216.592 555.514 216.73C555.535 216.869 555.502 217.011 555.42 217.125C555.339 217.24 555.216 217.318 555.078 217.344C554.341 217.456 553.813 217.816 553.551 218.383C553.111 219.338 553.419 220.793 554.397 222.376C554.499 222.541 554.645 222.763 554.826 223.041C556.39 225.427 560.544 231.765 563.332 241.714C563.351 241.782 563.357 241.853 563.348 241.924C563.34 241.994 563.318 242.062 563.283 242.124C563.248 242.186 563.202 242.24 563.146 242.284C563.09 242.328 563.026 242.361 562.958 242.38C562.89 242.399 562.818 242.404 562.748 242.396C562.677 242.387 562.609 242.365 562.547 242.33C562.486 242.296 562.431 242.249 562.387 242.193C562.343 242.138 562.311 242.074 562.292 242.005C559.549 232.218 555.461 225.981 553.923 223.633C553.772 223.405 553.623 223.175 553.478 222.944C552.68 221.654 552.273 220.428 552.273 219.366L552.273 219.366ZM563.35 229.795C563.35 228.295 563.594 227.069 564.083 226.13C564.151 226.006 564.264 225.914 564.399 225.873C564.535 225.832 564.68 225.845 564.806 225.911C564.931 225.976 565.026 226.087 565.07 226.222C565.114 226.356 565.103 226.502 565.041 226.629C564.569 227.537 564.128 229.344 564.711 232.796C565.47 237.305 567.974 240.884 570.623 244.674L570.984 245.19C572.51 247.383 573.834 249.71 574.94 252.143C574.97 252.208 574.987 252.278 574.99 252.349C574.993 252.42 574.981 252.491 574.957 252.558C574.932 252.625 574.894 252.686 574.846 252.738C574.797 252.79 574.739 252.833 574.674 252.862C574.609 252.892 574.539 252.908 574.468 252.91C574.396 252.913 574.325 252.901 574.259 252.875C574.192 252.85 574.131 252.812 574.079 252.763C574.028 252.714 573.986 252.656 573.957 252.59C572.878 250.218 571.587 247.947 570.098 245.808L569.738 245.293C567.017 241.401 564.446 237.724 563.646 232.975C563.449 231.808 563.35 230.746 563.35 229.795L563.35 229.795ZM571.531 233.889C571.53 233.754 571.58 233.624 571.671 233.524C571.762 233.424 571.887 233.362 572.021 233.35C572.156 233.337 572.29 233.376 572.397 233.458C572.505 233.539 572.578 233.658 572.602 233.791C573.721 239.79 576.845 245.929 580.959 250.213C581.058 250.316 581.112 250.455 581.109 250.598C581.107 250.741 581.047 250.878 580.944 250.977C580.84 251.076 580.702 251.13 580.558 251.127C580.415 251.125 580.279 251.065 580.18 250.962C575.926 246.532 572.696 240.187 571.54 233.99C571.534 233.957 571.531 233.923 571.531 233.89L571.531 233.889Z" fill="#1E1E1E"/>
<path d="M521.918 214.317L525.862 225.855L537.409 229.795L525.862 233.735L521.918 245.274L517.975 233.735L506.428 229.795L517.975 225.855L521.918 214.317Z" fill="white"/>
<g clip-path="url(#clip6_1_2625)">
<mask id="mask0_1_2625" style="mask-type:luminance" maskUnits="userSpaceOnUse" x="0" y="165" width="164" height="192">
<path d="M97.4844 165.5L0.105027 209.259L66.2252 356.109L163.605 312.351L97.4844 165.5Z" fill="white"/>
</mask>
<g mask="url(#mask0_1_2625)">
<path d="M125.23 322.405C126.266 322.299 127.287 322.182 128.3 322.049C136.733 321.048 145.014 319.031 152.962 316.04C154.399 315.504 155.763 314.79 157.022 313.913C158.036 313.272 158.85 312.36 159.37 311.28C159.89 310.2 160.096 308.996 159.964 307.806C159.99 306.849 159.743 305.906 159.251 305.085C158.759 304.265 158.042 303.602 157.185 303.175C156.156 302.672 155.056 302.329 153.923 302.156C115.499 295.178 75.0031 287.778 45.7842 229.806C43.8381 225.957 41.1311 223.419 38.29 222.258C36.5766 218.325 34.0821 211.983 34.7291 207.785C35.3701 203.662 37.6631 199.612 36.7668 198.197C34.5053 194.625 23.502 198.469 23.0722 201.734C22.832 203.543 26.0429 205.634 28.0835 208.178C30.1155 210.708 29.7871 218.716 29.3801 223.489C26.5879 225.807 24.6115 230.204 24.5753 236.838C24.5259 242.598 24.8798 248.355 25.6347 254.066C25.7949 255.246 25.9724 256.399 26.167 257.548C35.7605 314.227 86.8598 326.372 125.23 322.405Z" fill="#FAB222"/>
<path d="M125.23 322.407C126.266 322.302 127.288 322.184 128.301 322.051C121.162 318.393 113.249 312.311 107.656 307.564C94.6346 296.508 81.6996 291.329 84.0568 306.61C86.4862 322.333 66.1839 308.842 55.8642 291.711C48.9136 280.174 37.1258 253.809 26.1652 257.547C35.7607 314.23 86.86 326.375 125.23 322.407Z" fill="white"/>
<path d="M154.514 316.436C155.6 315.964 156.633 315.38 157.597 314.693C158.745 313.959 159.666 312.92 160.256 311.693C160.846 310.466 161.081 309.1 160.936 307.747C160.949 306.624 160.647 305.521 160.065 304.561C159.482 303.601 158.641 302.824 157.639 302.317C156.526 301.768 155.336 301.394 154.109 301.205C115.551 294.202 75.6837 286.958 46.6609 229.374C45.0858 225.971 42.398 223.204 39.0386 221.528C37.8822 218.865 35.0524 212.114 35.6993 207.942C35.9947 206.311 36.4192 204.706 36.9688 203.142C37.7748 200.672 38.3574 198.89 37.5884 197.678C36.4759 195.918 33.7974 195.357 30.2409 196.139C26.5396 196.951 22.4323 199.148 22.1079 201.613C21.8875 203.279 23.3702 204.731 25.0874 206.413C25.8788 207.158 26.6262 207.949 27.3257 208.781C28.6245 210.399 29.04 215.705 28.4466 223.013C25.3543 225.795 23.6385 230.679 23.6071 236.831C23.4322 269.602 34.3854 293.767 56.158 308.652C73.3589 320.409 93.4674 323.478 107.307 323.981C123.652 324.577 140.423 322.011 153.32 316.944C153.737 316.777 154.135 316.608 154.514 316.436ZM27.4969 199.077C28.5124 198.623 29.5706 198.273 30.6572 198.034C33.2482 197.465 35.3244 197.733 35.9455 198.715C36.2259 199.158 35.5895 201.115 35.1242 202.543C34.5382 204.203 34.0866 205.908 33.7736 207.641C33.0901 212.056 35.5184 218.32 37.4045 222.648C37.5056 222.88 37.693 223.063 37.927 223.158C41.0289 224.614 43.5086 227.126 44.9215 230.244C74.379 288.692 114.73 296.023 153.752 303.112C154.786 303.266 155.79 303.576 156.73 304.031C157.44 304.381 158.032 304.931 158.435 305.612C158.838 306.292 159.033 307.076 158.998 307.866C159.121 308.894 158.947 309.936 158.495 310.868C158.044 311.8 157.334 312.584 156.45 313.127C155.259 313.954 153.968 314.627 152.608 315.134C132.105 323.19 88.0855 328.119 57.2577 307.048C36.0471 292.547 25.3809 268.929 25.5509 236.841C25.5819 231.067 27.1634 226.59 30.0041 224.233C30.1033 224.151 30.1851 224.05 30.2448 223.936C30.3044 223.822 30.3408 223.697 30.3517 223.569C30.8479 217.744 30.9906 210.24 28.844 207.569C28.0978 206.675 27.2989 205.827 26.4515 205.029C25.2755 203.877 23.9433 202.572 24.0365 201.866C24.1352 201.098 25.5145 199.968 27.4969 199.077Z" fill="#1E1E1E"/>
<path d="M154.765 311.16L157.021 313.91C158.035 313.27 158.849 312.358 159.369 311.279C159.89 310.2 160.096 308.997 159.966 307.807C159.992 306.851 159.744 305.908 159.252 305.087C158.76 304.267 158.044 303.604 157.187 303.177C155.973 304.196 154.605 305.419 154.605 305.419L154.765 311.16Z" fill="#1E1E1E"/>
<path d="M157.419 314.794C157.481 314.766 157.541 314.732 157.596 314.692C158.744 313.958 159.665 312.92 160.255 311.693C160.845 310.466 161.081 309.099 160.935 307.746C160.948 306.624 160.647 305.52 160.064 304.56C159.481 303.601 158.641 302.823 157.638 302.316C157.468 302.229 157.275 302.193 157.085 302.215C156.895 302.236 156.715 302.313 156.568 302.436C155.344 303.464 153.963 304.697 153.963 304.697C153.858 304.791 153.775 304.907 153.719 305.037C153.663 305.166 153.636 305.307 153.639 305.448L153.801 311.188C153.807 311.402 153.884 311.609 154.02 311.774L156.27 314.523C156.405 314.688 156.591 314.804 156.799 314.853C157.006 314.901 157.224 314.881 157.419 314.794ZM157.288 304.363C157.838 304.763 158.281 305.291 158.579 305.902C158.877 306.513 159.02 307.187 158.996 307.866C159.106 308.737 158.996 309.622 158.676 310.44C158.356 311.258 157.835 311.983 157.162 312.549L155.727 310.8L155.588 305.842C155.967 305.506 156.618 304.935 157.288 304.363ZM52.9359 275.758C53.0732 275.697 53.1943 275.604 53.2896 275.488C53.385 275.372 53.452 275.235 53.4855 275.088C53.5189 274.942 53.5178 274.79 53.4823 274.644C53.4468 274.498 53.3778 274.362 53.2807 274.248C44.364 263.784 38.4987 251.075 36.3246 237.507C36.306 237.38 36.2622 237.257 36.1958 237.147C36.1293 237.037 36.0415 236.941 35.9375 236.865C35.8335 236.789 35.7153 236.734 35.5899 236.704C35.4646 236.674 35.3344 236.669 35.2071 236.69C35.0799 236.711 34.958 236.757 34.8486 236.825C34.7392 236.893 34.6445 236.983 34.57 237.088C34.4956 237.193 34.4428 237.312 34.4148 237.438C34.3868 237.563 34.3841 237.693 34.407 237.82C36.6368 251.735 42.6526 264.768 51.7978 275.498C51.9335 275.659 52.1179 275.771 52.3231 275.818C52.5284 275.865 52.7435 275.844 52.9359 275.758ZM138.722 311.768C138.929 311.674 139.096 311.511 139.195 311.306C139.295 311.102 139.32 310.87 139.266 310.65C139.211 310.429 139.08 310.236 138.897 310.102C138.714 309.968 138.489 309.902 138.262 309.916C120.345 311.063 92.2984 305.188 70.038 289.471C69.8815 289.356 69.6939 289.29 69.4995 289.282C69.3051 289.274 69.1127 289.324 68.9471 289.426C68.8377 289.495 68.7429 289.584 68.6682 289.69C68.5935 289.795 68.5402 289.914 68.5116 290.04C68.4698 290.229 68.4858 290.427 68.5576 290.608C68.6294 290.788 68.7537 290.943 68.9145 291.053C93.1147 308.144 121.46 312.937 138.386 311.852C138.502 311.844 138.616 311.816 138.722 311.768Z" fill="#1E1E1E"/>
</g>
</g>
</g>
<defs>
<clipPath id="clip0_1_2625">
<rect width="598" height="357" fill="white"/>
</clipPath>
<clipPath id="clip1_1_2625">
<rect width="89.5497" height="182.398" fill="white" transform="translate(344.373 133.353)"/>
</clipPath>
<clipPath id="clip2_1_2625">
<rect width="103.984" height="312.821" fill="white" transform="translate(225.248)"/>
</clipPath>
<clipPath id="clip3_1_2625">
<rect width="195.239" height="67.9783" fill="white" transform="translate(402.762 248.845)"/>
</clipPath>
<clipPath id="clip4_1_2625">
<rect width="113.922" height="190.234" fill="white" transform="translate(98.9043 122.637)"/>
</clipPath>
<clipPath id="clip5_1_2625">
<rect width="72.6295" height="83.4016" fill="white" transform="translate(296.699 259.561) rotate(90)"/>
</clipPath>
<clipPath id="clip6_1_2625">
<rect width="106.874" height="161.975" fill="white" transform="matrix(-0.912138 0.409882 0.410558 0.911834 97.4844 165.5)"/>
</clipPath>
</defs>
</svg>
