<svg width="29" height="34" viewBox="0 0 29 34" fill="none" xmlns="http://www.w3.org/2000/svg">
<path d="M17.4475 8.37971C17.4475 8.37971 19.3559 2.41919 26.6886 5.67871C26.6886 5.67871 23.2878 11.7793 17.4475 8.37971Z" fill="#8DB511"/>
<path d="M23.0205 15.3362C23.0205 19.9788 19.2535 23.7424 14.6067 23.7424C9.95987 23.7424 6.19287 19.9788 6.19287 15.3362C6.19287 10.6935 9.95987 6.92993 14.6067 6.92993C19.2535 6.92993 23.0205 10.6935 23.0205 15.3362Z" fill="#F8B42E"/>
<path d="M13.6655 10.8957C13.2305 11.4094 12.4611 11.4735 11.947 11.0389C11.4328 10.6043 11.3686 9.83563 11.8036 9.32195C12.2386 8.80827 13.008 8.74414 13.5221 9.17871C14.0363 9.61329 14.1005 10.382 13.6655 10.8957Z" fill="white"/>
<path fill-rule="evenodd" clip-rule="evenodd" d="M10.8137 19.5872C10.2932 19.9349 9.58907 19.7951 9.24094 19.2749C8.55407 18.2485 8.16025 17.0543 8.1033 15.8224C8.04634 14.5905 8.32852 13.3679 8.92043 12.289C9.22139 11.7404 9.91049 11.5396 10.4596 11.8405C11.0087 12.1414 11.2098 12.83 10.9089 13.3786C10.5181 14.0909 10.3306 14.9004 10.3684 15.7186C10.4063 16.5369 10.668 17.3319 11.1257 18.0158C11.4739 18.536 11.3342 19.2395 10.8137 19.5872Z" fill="white"/>
<path fill-rule="evenodd" clip-rule="evenodd" d="M28.1546 21.1084C28.5942 20.0638 27.9263 18.9334 26.8302 18.6455C25.7356 18.3581 24.6324 19.0252 24.1374 20.0429C23.569 21.2118 22.7859 22.271 21.8229 23.1628C20.3558 24.5215 18.5316 25.4355 16.5634 25.7981C14.5953 26.1607 12.5643 25.9569 10.7079 25.2106C8.85138 24.4642 7.24601 23.2061 6.07925 21.5832C4.91249 19.9603 4.23251 18.0395 4.11872 16.0453C4.00494 14.0511 4.46205 12.0657 5.43667 10.3211C6.41129 8.57651 7.86318 7.14466 9.62276 6.19281C10.7795 5.56709 12.0378 5.16578 13.3315 5.00324C14.4528 4.86235 15.4368 4.03186 15.5146 2.90437C15.5925 1.77644 14.7377 0.784121 13.6099 0.864148C11.5363 1.01129 9.50956 1.59792 7.6682 2.594C5.22434 3.91601 3.20782 5.90469 1.85418 8.32777C0.500544 10.7508 -0.134336 13.5083 0.0236964 16.278C0.181729 19.0478 1.12615 21.7155 2.74665 23.9695C4.36715 26.2236 6.59683 27.971 9.17526 29.0076C11.7537 30.0442 14.5744 30.3272 17.308 29.8236C18.2839 29.6438 19.2344 29.3664 20.1458 28.9981L21.9705 31.9108C22.7384 33.1365 24.355 33.5085 25.5813 32.7416C26.8076 31.9748 27.1793 30.3595 26.4114 29.1338L24.5734 26.1999C24.5866 26.1878 24.5997 26.1756 24.6129 26.1635C26.146 24.7437 27.3507 23.0184 28.1546 21.1084Z" fill="#8DB511"/>
</svg>
