<svg width="104" height="38" viewBox="0 0 104 38" fill="none" xmlns="http://www.w3.org/2000/svg">
<path d="M90.31 9.46223C89.1758 9.81488 88.0416 10.1472 86.914 10.5202C84.8446 11.1983 82.8613 10.2896 82.2776 8.37716C81.7205 6.53255 82.6491 5.15588 85.0435 4.56588C88.1079 3.81311 91.2253 3.26382 94.2831 2.48393C95.9214 2.06346 97.4404 1.13438 99.0853 0.829203C100.332 0.591845 101.977 0.551154 102.906 1.20897C103.695 1.76507 104.053 3.48082 103.994 4.65404C103.848 7.70579 103.383 10.7507 103.005 13.7889C102.906 14.6027 102.873 15.5657 102.428 16.1625C101.778 17.0441 100.783 17.6545 99.9409 18.3869C99.1649 17.2679 97.825 16.2032 97.7189 15.0164C97.5067 12.6632 97.9776 10.2489 98.17 7.71257C96.6046 7.65832 95.6362 7.79394 95.9281 9.6928C96.1801 11.3611 95.477 12.6835 94.0775 13.7075C86.8344 19.0176 79.9296 24.904 72.2952 29.5291C66.9624 32.7572 60.701 34.5001 54.7181 36.4736C51.6139 37.4976 48.2113 38.0198 44.9479 37.9994C38.8722 37.9587 33.7317 35.9107 31.9608 28.9256C26.953 29.9767 22.1309 30.994 17.3022 31.9909C12.8316 32.9132 8.35442 33.6388 3.88387 31.9502C3.73795 31.8959 3.53898 31.9502 3.40633 31.8756C1.82107 30.9329 -0.520333 30.1463 0.103156 27.888C0.779707 25.4466 3.06141 26.1587 4.86554 26.7012C9.93305 28.2339 14.8347 26.7758 19.7629 25.8738C23.0197 25.277 26.2366 24.409 29.5066 23.9139C31.2245 23.6562 31.8546 22.8424 32.0138 21.2216C32.8496 12.6699 37.7778 6.82417 44.3775 2.23978C47.3556 0.171374 50.9307 -0.133794 54.4263 0.0425291C57.9483 0.21207 59.8188 3.56899 59.3147 7.08188C57.9218 16.8136 50.6323 20.8351 43.3162 24.8701C41.2799 25.9959 39.0778 26.8097 36.9155 27.7795C37.5257 30.6549 38.9982 32.174 41.6912 32.5673C47.4816 33.415 53.0068 32.3028 58.406 30.3226C65.145 27.8541 71.7181 24.9922 77.4555 20.5095C81.8797 17.0577 86.1711 13.4295 90.5156 9.88269C90.4427 9.74706 90.3697 9.61144 90.2968 9.47581L90.31 9.46223ZM36.7232 21.4251C43.1504 20.0009 54.9967 12.5411 53.9686 4.69473C47.3954 2.91794 37.1676 13.1447 36.7232 21.4251Z" fill="#F6FCEE"/>
</svg>
