<svg width="1440" height="1261" viewBox="0 0 1440 1261" fill="none" xmlns="http://www.w3.org/2000/svg">
<g clip-path="url(#clip0_2034_1840)">
<rect width="1440" height="1261" fill="#789D0E"/>
<path opacity="0.3" fill-rule="evenodd" clip-rule="evenodd" d="M-100.225 995.19C-104.321 1003.83 -98.6674 1013.43 -89.3791 1015.69C-80.5942 1017.82 -71.8464 1012.51 -67.6003 1004.53C-62.9226 995.739 -56.5211 987.768 -48.6713 981.044C-36.5598 970.67 -21.5006 963.691 -5.25255 960.922C10.9955 958.153 27.7616 959.709 43.0874 965.408C58.4132 971.107 71.6661 980.714 81.2981 993.106C90.9301 1005.5 96.5436 1020.17 97.4829 1035.39C98.4222 1050.62 94.6486 1065.78 86.6028 1079.1C78.5569 1092.42 66.5711 1103.36 52.0452 1110.63C42.0747 1115.61 31.19 1118.74 20.013 1119.86C11.4887 1120.72 4.05616 1127.03 3.41856 1135.57C2.77096 1144.25 9.35229 1151.88 18.0397 1151.38C35.5377 1150.38 52.6571 1145.87 68.1808 1138.11C88.3557 1128.01 105.003 1112.83 116.177 1094.32C127.352 1075.82 132.593 1054.77 131.289 1033.62C129.984 1012.47 122.188 992.096 108.81 974.884C95.4321 957.673 77.0253 944.33 55.7394 936.415C34.4536 928.499 11.1674 926.338 -11.3994 930.184C-19.4595 931.557 -27.3089 933.677 -34.8365 936.491L-50.1389 913.868C-56.3277 904.719 -69.0982 901.781 -78.6627 907.306L-80.7006 908.484C-90.2651 914.009 -93.0017 925.905 -86.8129 935.054L-71.3858 957.861C-71.4918 957.951 -71.5976 958.041 -71.7032 958.132C-83.9119 968.59 -93.5982 981.218 -100.225 995.19Z" fill="white"/>
<path fill-rule="evenodd" clip-rule="evenodd" d="M1019.93 153.514C1025.86 153.648 1031.93 153.381 1037.6 155.278C1037.94 155.39 1038.31 155.227 1038.43 154.911C1038.55 154.595 1038.38 154.247 1038.04 154.132C1032.23 152.191 1026.03 152.434 1019.96 152.298C1019.6 152.288 1019.3 152.556 1019.29 152.892C1019.28 153.227 1019.57 153.505 1019.93 153.514Z" fill="white"/>
<path fill-rule="evenodd" clip-rule="evenodd" d="M1019.39 145.456C1021.24 143.864 1023.26 142.672 1025.7 142.081C1026.05 141.997 1026.26 141.665 1026.17 141.339C1026.08 141.014 1025.72 140.819 1025.38 140.903C1022.72 141.546 1020.52 142.831 1018.51 144.561C1018.25 144.788 1018.23 145.173 1018.47 145.42C1018.72 145.667 1019.13 145.683 1019.39 145.456Z" fill="white"/>
<path fill-rule="evenodd" clip-rule="evenodd" d="M1014.25 128.078C1015.09 125.358 1016.76 123.231 1019.32 121.695C1019.63 121.514 1019.71 121.137 1019.52 120.855C1019.33 120.572 1018.92 120.49 1018.62 120.671C1015.79 122.372 1013.94 124.726 1013 127.737C1012.9 128.059 1013.1 128.397 1013.44 128.491C1013.79 128.585 1014.15 128.4 1014.25 128.078Z" fill="white"/>
<path fill-rule="evenodd" clip-rule="evenodd" d="M985.015 124.387C984.511 124.943 984.058 125.541 983.673 126.179C983.501 126.462 983.199 127.065 983.153 127.582C983.101 128.133 983.301 128.598 983.816 128.843C984.5 129.167 985.047 129.134 985.468 128.937C985.874 128.749 986.191 128.378 986.392 127.881C986.774 126.931 986.717 125.48 986.517 124.652C987.055 124.132 987.646 123.661 988.278 123.242C992.987 120.121 999.895 121.272 1005.21 125.938C1007.07 127.571 1007.97 131.002 1008.43 134.704C1009.16 140.467 1008.74 146.905 1008.69 148.791C1008.67 149.257 1008.72 149.533 1008.75 149.588C1008.87 149.86 1009.08 149.93 1009.24 149.957C1009.45 149.994 1009.63 149.955 1009.77 149.886C1009.96 149.793 1010.11 149.629 1010.19 149.375C1010.23 149.235 1010.24 149.039 1010.23 148.831C1010.23 148.687 1010.2 148.529 1010.23 148.426C1010.43 147.764 1010.67 147.117 1010.91 146.466C1011.71 144.276 1012.75 142.224 1013.89 140.175C1017.54 133.662 1021.06 126.781 1027.04 121.82C1027.31 121.597 1027.33 121.212 1027.09 120.961C1026.86 120.71 1026.45 120.687 1026.18 120.91C1020.08 125.97 1016.46 132.969 1012.74 139.61C1011.76 141.354 1010.87 143.099 1010.13 144.926C1010.2 141.695 1010.17 137.224 1009.54 133.267C1008.98 129.749 1007.91 126.639 1006.1 125.051C1000.28 119.939 992.683 118.831 987.526 122.249C986.975 122.615 986.449 123.018 985.96 123.454C983.262 118.898 977.486 117.072 972.381 119.251C972.053 119.39 971.91 119.752 972.059 120.057C972.209 120.362 972.594 120.497 972.922 120.358C977.522 118.394 982.739 120.146 985.015 124.387ZM985.393 125.913C985.182 126.191 984.987 126.48 984.805 126.778C984.708 126.938 984.542 127.246 984.472 127.547C984.456 127.618 984.453 127.728 984.453 127.779C984.633 127.862 984.773 127.902 984.888 127.848C985.031 127.782 985.104 127.626 985.174 127.452C985.351 127.016 985.408 126.437 985.393 125.913Z" fill="white"/>
<g opacity="0.3">
<path fill-rule="evenodd" clip-rule="evenodd" d="M240.003 22.0971C243.408 22.0971 246.169 24.6468 246.169 27.792V42.0294C246.169 45.1746 243.408 47.7243 240.003 47.7243C236.597 47.7243 233.836 45.1746 233.836 42.0294V27.792C233.836 24.6468 236.597 22.0971 240.003 22.0971ZM193.269 40.6146C195.677 38.3906 199.582 38.3906 201.99 40.6146L215.071 52.6954C217.48 54.9194 217.48 58.5253 215.071 60.7493C212.663 62.9733 208.759 62.9733 206.35 60.7493L193.269 48.6685C190.861 46.4445 190.861 42.8386 193.269 40.6146ZM285.459 41.7941C287.867 44.0181 287.867 47.6239 285.459 49.8479L276.738 57.9018C274.33 60.1258 270.425 60.1258 268.017 57.9018C265.609 55.6778 265.609 52.072 268.017 49.8479L276.738 41.7941C279.146 39.5701 283.051 39.5701 285.459 41.7941ZM173.711 83.3177C173.711 80.1725 176.472 77.6228 179.878 77.6228H201.461C204.867 77.6228 207.628 80.1725 207.628 83.3177C207.628 86.4629 204.867 89.0126 201.461 89.0126H179.878C176.472 89.0126 173.711 86.4629 173.711 83.3177ZM281.628 83.3177C281.628 80.1725 284.389 77.6228 287.794 77.6228H297.044C300.45 77.6228 303.211 80.1725 303.211 83.3177C303.211 86.4629 300.45 89.0126 297.044 89.0126H287.794C284.389 89.0126 281.628 86.4629 281.628 83.3177ZM218.155 103.494C220.563 105.718 220.563 109.324 218.155 111.548L200.713 127.656C198.305 129.88 194.4 129.88 191.992 127.656C189.584 125.432 189.584 121.826 191.992 119.602L209.434 103.494C211.842 101.27 215.747 101.27 218.155 103.494ZM271.1 112.037C273.509 109.813 277.413 109.813 279.821 112.037L284.182 116.064C286.59 118.288 286.59 121.893 284.182 124.117C281.774 126.341 277.869 126.341 275.461 124.117L271.1 120.091C268.692 117.867 268.692 114.261 271.1 112.037ZM240.003 111.792C243.408 111.792 246.169 114.342 246.169 117.487V140.267C246.169 143.412 243.408 145.962 240.003 145.962C236.597 145.962 233.836 143.412 233.836 140.267V117.487C233.836 114.342 236.597 111.792 240.003 111.792Z" fill="white"/>
</g>
<path opacity="0.3" d="M1337 205.5C1337 207.041 1337.66 208.519 1338.84 209.609C1340.02 210.699 1341.62 211.311 1343.29 211.311L1368.43 211.311L1368.43 234.556C1368.43 236.097 1369.09 237.575 1370.27 238.665C1371.45 239.754 1373.05 240.367 1374.71 240.367C1376.38 240.367 1377.98 239.754 1379.16 238.665C1380.34 237.575 1381 236.097 1381 234.556L1381 205.5C1381 203.959 1380.34 202.481 1379.16 201.391C1377.98 200.301 1376.38 199.689 1374.71 199.689L1343.29 199.689C1341.62 199.689 1340.02 200.301 1338.84 201.391C1337.66 202.481 1337 203.959 1337 205.5Z" fill="white"/>
<path opacity="0.3" d="M1363.5 798.54C1360.45 798.54 1357.52 799.658 1355.37 801.647C1353.21 803.637 1352 806.336 1352 809.149V915.247C1352 918.061 1353.21 920.76 1355.37 922.749C1357.52 924.739 1360.45 925.857 1363.5 925.857C1366.55 925.857 1369.48 924.739 1371.63 922.749C1373.79 920.76 1375 918.061 1375 915.247V809.149C1375 806.336 1373.79 803.637 1371.63 801.647C1369.48 799.658 1366.55 798.54 1363.5 798.54ZM1513 915.247V809.149C1513 806.336 1511.79 803.637 1509.63 801.647C1507.48 799.658 1504.55 798.54 1501.5 798.54C1498.45 798.54 1495.52 799.658 1493.37 801.647C1491.21 803.637 1490 806.336 1490 809.149V915.247C1490 918.061 1491.21 920.76 1493.37 922.749C1495.52 924.739 1498.45 925.857 1501.5 925.857C1504.55 925.857 1507.48 924.739 1509.63 922.749C1511.79 920.76 1513 918.061 1513 915.247ZM1455.5 798.54C1452.45 798.54 1449.52 799.658 1447.37 801.647C1445.21 803.637 1444 806.336 1444 809.149V915.247C1444 918.061 1445.21 920.76 1447.37 922.749C1449.52 924.739 1452.45 925.857 1455.5 925.857C1458.55 925.857 1461.48 924.739 1463.63 922.749C1465.79 920.76 1467 918.061 1467 915.247V809.149C1467 806.336 1465.79 803.637 1463.63 801.647C1461.48 799.658 1458.55 798.54 1455.5 798.54ZM1409.5 798.54C1406.45 798.54 1403.52 799.658 1401.37 801.647C1399.21 803.637 1398 806.336 1398 809.149V915.247C1398 918.061 1399.21 920.76 1401.37 922.749C1403.52 924.739 1406.45 925.857 1409.5 925.857C1412.55 925.857 1415.48 924.739 1417.63 922.749C1419.79 920.76 1421 918.061 1421 915.247V809.149C1421 806.336 1419.79 803.637 1417.63 801.647C1415.48 799.658 1412.55 798.54 1409.5 798.54Z" fill="white"/>
<g opacity="0.3">
<path fill-rule="evenodd" clip-rule="evenodd" d="M1144.5 1056.68C1146.18 1056.68 1147.54 1057.94 1147.54 1059.49V1066.51C1147.54 1068.06 1146.18 1069.32 1144.5 1069.32C1142.82 1069.32 1141.46 1068.06 1141.46 1066.51V1059.49C1141.46 1057.94 1142.82 1056.68 1144.5 1056.68ZM1121.45 1065.82C1122.64 1064.72 1124.56 1064.72 1125.75 1065.82L1132.2 1071.77C1133.39 1072.87 1133.39 1074.65 1132.2 1075.75C1131.02 1076.84 1129.09 1076.84 1127.9 1075.75L1121.45 1069.79C1120.26 1068.69 1120.26 1066.91 1121.45 1065.82ZM1166.92 1066.4C1168.11 1067.49 1168.11 1069.27 1166.92 1070.37L1162.62 1074.34C1161.43 1075.44 1159.51 1075.44 1158.32 1074.34C1157.13 1073.24 1157.13 1071.47 1158.32 1070.37L1162.62 1066.4C1163.81 1065.3 1165.73 1065.3 1166.92 1066.4ZM1111.8 1086.88C1111.8 1085.32 1113.16 1084.07 1114.84 1084.07H1125.49C1127.17 1084.07 1128.53 1085.32 1128.53 1086.88C1128.53 1088.43 1127.17 1089.68 1125.49 1089.68H1114.84C1113.16 1089.68 1111.8 1088.43 1111.8 1086.88ZM1165.03 1086.88C1165.03 1085.32 1166.39 1084.07 1168.07 1084.07H1172.64C1174.32 1084.07 1175.68 1085.32 1175.68 1086.88C1175.68 1088.43 1174.32 1089.68 1172.64 1089.68H1168.07C1166.39 1089.68 1165.03 1088.43 1165.03 1086.88ZM1133.72 1096.83C1134.91 1097.92 1134.91 1099.7 1133.72 1100.8L1125.12 1108.74C1123.93 1109.84 1122.01 1109.84 1120.82 1108.74C1119.63 1107.64 1119.63 1105.87 1120.82 1104.77L1129.42 1096.83C1130.61 1095.73 1132.54 1095.73 1133.72 1096.83ZM1159.84 1101.04C1161.03 1099.94 1162.95 1099.94 1164.14 1101.04L1166.29 1103.02C1167.48 1104.12 1167.48 1105.9 1166.29 1107C1165.1 1108.09 1163.18 1108.09 1161.99 1107L1159.84 1105.01C1158.65 1103.91 1158.65 1102.13 1159.84 1101.04ZM1144.5 1100.92C1146.18 1100.92 1147.54 1102.17 1147.54 1103.73V1114.96C1147.54 1116.51 1146.18 1117.77 1144.5 1117.77C1142.82 1117.77 1141.46 1116.51 1141.46 1114.96V1103.73C1141.46 1102.17 1142.82 1100.92 1144.5 1100.92Z" fill="white"/>
</g>
</g>
<defs>
<clipPath id="clip0_2034_1840">
<rect width="1440" height="1261" fill="white"/>
</clipPath>
</defs>
</svg>
