<svg width="1440" height="870" viewBox="0 0 1440 870" fill="none" xmlns="http://www.w3.org/2000/svg">
<mask id="mask0_2001_1045" style="mask-type:alpha" maskUnits="userSpaceOnUse" x="0" y="0" width="1440" height="870">
<path d="M1440 0H0V819.807C0 819.807 80.7534 772.479 234.247 772.479C387.74 772.479 493.146 852.401 633.082 864.959C788.706 878.925 930.822 863.871 1144.73 819.807C1358.63 775.743 1440 819.807 1440 819.807V0Z" fill="black"/>
</mask>
<g mask="url(#mask0_2001_1045)">
<g clip-path="url(#clip0_2001_1045)">
<rect width="1446" height="890" transform="translate(-3)" fill="#789D0E"/>
<g opacity="0.2">
<path d="M1207.58 80.8665C1207.58 80.8665 1277.48 -137.63 1546.03 -18.1445C1546.03 -18.1445 1421.48 205.485 1207.58 80.8665Z" fill="#57613C"/>
<path d="M1604.7 471.246C1615.27 474.023 1621.62 484.857 1618.45 495.313C1590.91 586.093 1539.71 668.071 1469.93 732.753C1395.3 801.926 1302.51 848.46 1202.39 866.921C1102.28 885.383 998.969 875.008 904.536 837.009C810.103 799.011 728.443 734.957 669.094 652.329C609.744 569.701 575.155 471.911 569.368 370.38C563.58 268.849 586.832 167.768 636.408 78.9449C685.984 -9.87848 759.837 -82.7781 849.341 -131.239C933.042 -176.558 1027.2 -198.755 1122.12 -195.727C1133.04 -195.379 1141.26 -185.898 1140.51 -175.001L1132.91 -64.7582C1132.16 -53.8633 1122.71 -45.6928 1111.8 -45.8848C1045.33 -47.0535 979.564 -31.0656 920.926 0.683411C856.483 35.5754 803.308 88.0631 767.614 152.016C731.919 215.969 715.177 288.747 719.345 361.849C723.512 434.951 748.416 505.361 791.147 564.852C833.879 624.344 892.674 670.463 960.666 697.822C1028.66 725.181 1103.04 732.651 1175.12 719.359C1247.21 706.067 1314.01 672.562 1367.75 622.757C1416.64 577.442 1452.86 520.335 1473.04 457.07C1476.36 446.669 1487.12 440.343 1497.68 443.118L1604.7 471.246Z" fill="#57613C"/>
<path d="M1411.61 335.853C1411.61 506.039 1273.65 644.003 1103.46 644.003C933.276 644.003 795.312 506.039 795.312 335.853C795.312 165.666 933.276 27.7026 1103.46 27.7026C1273.65 27.7026 1411.61 165.666 1411.61 335.853Z" fill="#57613C"/>
<path fill-rule="evenodd" clip-rule="evenodd" d="M1234.38 732.185C1232.76 733.331 1232.37 735.575 1233.52 737.198L1359.13 914.938C1360.27 916.561 1362.52 916.948 1364.14 915.802L1514.08 810.022C1515.71 808.876 1516.1 806.632 1514.95 805.009L1389.34 627.269C1388.19 625.646 1385.95 625.259 1384.32 626.404L1234.38 732.185ZM1378.85 948.363C1377.23 949.509 1376.84 951.753 1377.99 953.376L1424.13 1018.66C1425.27 1020.29 1427.52 1020.67 1429.14 1019.53L1579.09 913.743C1580.71 912.598 1581.1 910.353 1579.95 908.73L1533.82 843.444C1532.67 841.821 1530.42 841.434 1528.8 842.58L1378.85 948.363Z" fill="#57613C"/>
<circle cx="1034.85" cy="144.241" r="44.6594" transform="rotate(40.2313 1034.85 144.241)" fill="#789D0E"/>
<path d="M941.467 457.162C920.507 425.815 908.502 389.355 906.766 351.779C905.03 314.202 913.631 276.958 931.626 244.126" stroke="#789D0E" stroke-opacity="0.5" stroke-width="68.245" stroke-linecap="round"/>
</g>
<path d="M228.253 723C226.462 723 224.744 723.702 223.478 724.953C222.212 726.203 221.5 727.899 221.5 729.667V796.333C221.5 798.101 222.212 799.797 223.478 801.047C224.744 802.298 226.462 803 228.253 803C230.044 803 231.762 802.298 233.029 801.047C234.295 799.797 235.006 798.101 235.006 796.333V729.667C235.006 727.899 234.295 726.203 233.029 724.953C231.762 723.702 230.044 723 228.253 723ZM316.045 796.333V729.667C316.045 727.899 315.334 726.203 314.067 724.953C312.801 723.702 311.083 723 309.292 723C307.501 723 305.783 723.702 304.517 724.953C303.25 726.203 302.539 727.899 302.539 729.667V796.333C302.539 798.101 303.25 799.797 304.517 801.047C305.783 802.298 307.501 803 309.292 803C311.083 803 312.801 802.298 314.067 801.047C315.334 799.797 316.045 798.101 316.045 796.333ZM282.279 723C280.488 723 278.77 723.702 277.504 724.953C276.237 726.203 275.526 727.899 275.526 729.667V796.333C275.526 798.101 276.237 799.797 277.504 801.047C278.77 802.298 280.488 803 282.279 803C284.07 803 285.788 802.298 287.054 801.047C288.321 799.797 289.032 798.101 289.032 796.333V729.667C289.032 727.899 288.321 726.203 287.054 724.953C285.788 723.702 284.07 723 282.279 723ZM255.266 723C253.475 723 251.757 723.702 250.491 724.953C249.224 726.203 248.513 727.899 248.513 729.667V796.333C248.513 798.101 249.224 799.797 250.491 801.047C251.757 802.298 253.475 803 255.266 803C257.057 803 258.775 802.298 260.042 801.047C261.308 799.797 262.019 798.101 262.019 796.333V729.667C262.019 727.899 261.308 726.203 260.042 724.953C258.775 723.702 257.057 723 255.266 723Z" fill="#8DB511"/>
</g>
</g>
<defs>
<clipPath id="clip0_2001_1045">
<rect width="1446" height="890" fill="white" transform="translate(-3)"/>
</clipPath>
</defs>
</svg>
