<svg width="1440" height="1610" viewBox="0 0 1440 1610" fill="none" xmlns="http://www.w3.org/2000/svg">
<line x1="1576.38" y1="0.5" x2="-136.999" y2="0.499859" stroke="#F8B42E" stroke-opacity="0.2"/>
<line x1="1576.38" y1="67.542" x2="-136.999" y2="67.5419" stroke="#F8B42E" stroke-opacity="0.2"/>
<line x1="1576.38" y1="134.583" x2="-136.999" y2="134.583" stroke="#F8B42E" stroke-opacity="0.2"/>
<line x1="61.1953" y1="2.22346e-08" x2="61.1952" y2="1609" stroke="#F8B42E" stroke-opacity="0.2"/>
<line x1="1576.38" y1="201.625" x2="-136.999" y2="201.625" stroke="#F8B42E" stroke-opacity="0.2"/>
<line x1="127.094" y1="2.22346e-08" x2="127.094" y2="1609" stroke="#F8B42E" stroke-opacity="0.2"/>
<line x1="1576.38" y1="268.667" x2="-136.999" y2="268.667" stroke="#F8B42E" stroke-opacity="0.2"/>
<line x1="192.992" y1="2.22346e-08" x2="192.992" y2="1609" stroke="#F8B42E" stroke-opacity="0.2"/>
<line x1="1576.38" y1="335.708" x2="-136.999" y2="335.708" stroke="#F8B42E" stroke-opacity="0.2"/>
<line x1="258.893" y1="2.22346e-08" x2="258.893" y2="1609" stroke="#F8B42E" stroke-opacity="0.2"/>
<line x1="1576.38" y1="402.75" x2="-136.999" y2="402.75" stroke="#F8B42E" stroke-opacity="0.2"/>
<line x1="324.797" y1="2.22346e-08" x2="324.797" y2="1609" stroke="#F8B42E" stroke-opacity="0.2"/>
<line x1="1576.38" y1="469.792" x2="-136.999" y2="469.792" stroke="#F8B42E" stroke-opacity="0.2"/>
<line x1="390.695" y1="2.22346e-08" x2="390.695" y2="1609" stroke="#F8B42E" stroke-opacity="0.2"/>
<line x1="1576.38" y1="536.833" x2="-136.999" y2="536.833" stroke="#F8B42E" stroke-opacity="0.2"/>
<line x1="456.594" y1="2.22346e-08" x2="456.594" y2="1609" stroke="#F8B42E" stroke-opacity="0.2"/>
<line x1="1576.38" y1="603.875" x2="-136.999" y2="603.875" stroke="#F8B42E" stroke-opacity="0.2"/>
<line x1="522.492" y1="2.22346e-08" x2="522.492" y2="1609" stroke="#F8B42E" stroke-opacity="0.2"/>
<line x1="1576.38" y1="670.917" x2="-136.999" y2="670.917" stroke="#F8B42E" stroke-opacity="0.2"/>
<line x1="588.393" y1="2.22346e-08" x2="588.393" y2="1609" stroke="#F8B42E" stroke-opacity="0.2"/>
<line x1="1576.38" y1="737.958" x2="-136.999" y2="737.958" stroke="#F8B42E" stroke-opacity="0.2"/>
<line x1="654.291" y1="2.22346e-08" x2="654.291" y2="1609" stroke="#F8B42E" stroke-opacity="0.2"/>
<line x1="1576.38" y1="805" x2="-136.999" y2="805" stroke="#F8B42E" stroke-opacity="0.2"/>
<line x1="720.189" y1="2.22346e-08" x2="720.189" y2="1609" stroke="#F8B42E" stroke-opacity="0.2"/>
<line x1="1576.38" y1="872.042" x2="-136.999" y2="872.041" stroke="#F8B42E" stroke-opacity="0.2"/>
<line x1="786.088" y1="2.22346e-08" x2="786.088" y2="1609" stroke="#F8B42E" stroke-opacity="0.2"/>
<line x1="1576.38" y1="939.083" x2="-136.999" y2="939.083" stroke="#F8B42E" stroke-opacity="0.2"/>
<line x1="851.986" y1="2.22346e-08" x2="851.986" y2="1609" stroke="#F8B42E" stroke-opacity="0.2"/>
<line x1="1576.38" y1="1006.12" x2="-136.999" y2="1006.12" stroke="#F8B42E" stroke-opacity="0.2"/>
<line x1="917.887" y1="2.22346e-08" x2="917.887" y2="1609" stroke="#F8B42E" stroke-opacity="0.2"/>
<line x1="1576.38" y1="1073.17" x2="-136.999" y2="1073.17" stroke="#F8B42E" stroke-opacity="0.2"/>
<line x1="983.785" y1="2.22346e-08" x2="983.785" y2="1609" stroke="#F8B42E" stroke-opacity="0.2"/>
<line x1="1576.38" y1="1140.21" x2="-136.999" y2="1140.21" stroke="#F8B42E" stroke-opacity="0.2"/>
<line x1="1049.68" y1="2.22346e-08" x2="1049.68" y2="1609" stroke="#F8B42E" stroke-opacity="0.2"/>
<line x1="1576.38" y1="1207.25" x2="-136.999" y2="1207.25" stroke="#F8B42E" stroke-opacity="0.2"/>
<line x1="1115.58" y1="2.22346e-08" x2="1115.58" y2="1609" stroke="#F8B42E" stroke-opacity="0.2"/>
<line x1="1576.38" y1="1274.29" x2="-136.999" y2="1274.29" stroke="#F8B42E" stroke-opacity="0.2"/>
<line x1="1181.48" y1="2.22346e-08" x2="1181.48" y2="1609" stroke="#F8B42E" stroke-opacity="0.2"/>
<line x1="1576.38" y1="1341.33" x2="-136.999" y2="1341.33" stroke="#F8B42E" stroke-opacity="0.2"/>
<line x1="1247.38" y1="2.22346e-08" x2="1247.38" y2="1609" stroke="#F8B42E" stroke-opacity="0.2"/>
<line x1="1576.38" y1="1408.38" x2="-136.999" y2="1408.37" stroke="#F8B42E" stroke-opacity="0.2"/>
<line x1="1313.28" y1="2.22346e-08" x2="1313.28" y2="1609" stroke="#F8B42E" stroke-opacity="0.2"/>
<line x1="1576.38" y1="1475.42" x2="-136.999" y2="1475.42" stroke="#F8B42E" stroke-opacity="0.2"/>
<line x1="1379.18" y1="2.22346e-08" x2="1379.18" y2="1609" stroke="#F8B42E" stroke-opacity="0.2"/>
<line x1="1576.38" y1="1542.46" x2="-136.999" y2="1542.46" stroke="#F8B42E" stroke-opacity="0.2"/>
<line x1="1576.38" y1="1609.5" x2="-136.999" y2="1609.5" stroke="#F8B42E" stroke-opacity="0.2"/>
</svg>
