<svg width="60" height="60" viewBox="0 0 60 60" fill="none" xmlns="http://www.w3.org/2000/svg">
<path d="M60 6.92308V17.6923C60 18.9662 58.9662 20 57.6923 20C56.4185 20 55.3846 18.9662 55.3846 17.6923V6.92308C55.3846 5.11077 54.8892 4.61538 53.0769 4.61538H42.3077C41.0338 4.61538 40 3.58154 40 2.30769C40 1.03385 41.0338 0 42.3077 0H53.0769C57.4123 0 60 2.58769 60 6.92308ZM2.30769 20C3.58154 20 4.61538 18.9662 4.61538 17.6923V6.92308C4.61538 5.11077 5.11077 4.61538 6.92308 4.61538H17.6923C18.9662 4.61538 20 3.58154 20 2.30769C20 1.03385 18.9662 0 17.6923 0H6.92308C2.58769 0 0 2.58769 0 6.92308V17.6923C0 18.9662 1.03385 20 2.30769 20ZM17.6923 55.3846H6.92308C5.11077 55.3846 4.61538 54.8892 4.61538 53.0769V42.3077C4.61538 41.0338 3.58154 40 2.30769 40C1.03385 40 0 41.0338 0 42.3077V53.0769C0 57.4123 2.58769 60 6.92308 60H17.6923C18.9662 60 20 58.9662 20 57.6923C20 56.4185 18.9662 55.3846 17.6923 55.3846ZM57.6923 40C56.4185 40 55.3846 41.0338 55.3846 42.3077V53.0769C55.3846 54.8892 54.8892 55.3846 53.0769 55.3846H42.3077C41.0338 55.3846 40 56.4185 40 57.6923C40 58.9662 41.0338 60 42.3077 60H53.0769C57.4123 60 60 57.4123 60 53.0769V42.3077C60 41.0338 58.9662 40 57.6923 40ZM12.3077 20.4V20.7692C12.3077 22.0431 13.3415 23.0769 14.6154 23.0769C15.8892 23.0769 16.9231 22.0431 16.9231 20.7692V20.4C16.9231 17.8 17.8 16.9231 20.4 16.9231H39.6C42.2 16.9231 43.0769 17.8 43.0769 20.4V20.7692C43.0769 22.0431 44.1108 23.0769 45.3846 23.0769C46.6585 23.0769 47.6923 22.0431 47.6923 20.7692V20.4C47.6923 15.2585 44.7415 12.3077 39.6 12.3077H20.4C15.2585 12.3077 12.3077 15.2554 12.3077 20.4ZM39.6 47.6923H20.4C15.2585 47.6923 12.3077 44.7415 12.3077 39.6V32.3077H8.46154C7.18769 32.3077 6.15385 31.2738 6.15385 30C6.15385 28.7262 7.18769 27.6923 8.46154 27.6923H51.5385C52.8123 27.6923 53.8462 28.7262 53.8462 30C53.8462 31.2738 52.8123 32.3077 51.5385 32.3077H47.6923V39.6C47.6923 44.7415 44.7415 47.6923 39.6 47.6923ZM43.0769 39.6V32.3077H16.9231V39.6C16.9231 42.2 17.8 43.0769 20.4 43.0769H39.6C42.2 43.0769 43.0769 42.2 43.0769 39.6Z" fill="url(#paint0_linear_2001_1089)"/>
<defs>
<linearGradient id="paint0_linear_2001_1089" x1="60" y1="53.8235" x2="-8.92878" y2="39.5307" gradientUnits="userSpaceOnUse">
<stop offset="0.151308" stop-color="#96CB02"/>
<stop offset="0.723066" stop-color="#FAB222"/>
</linearGradient>
</defs>
</svg>
