<svg width="22" height="21" viewBox="0 0 22 21" fill="none" xmlns="http://www.w3.org/2000/svg">
<path d="M11.0832 0.320068C5.42238 0.320068 0.828064 4.91438 0.828064 10.5752C0.828064 16.2361 5.42238 20.8304 11.0832 20.8304C16.7441 20.8304 21.3384 16.2361 21.3384 10.5752C21.3384 4.91438 16.7441 0.320068 11.0832 0.320068ZM15.2161 8.72932L10.4269 13.5082C10.2833 13.662 10.0885 13.7338 9.88337 13.7338C9.68852 13.7338 9.49367 13.662 9.33984 13.5082L6.9504 11.1188C6.653 10.8214 6.653 10.3291 6.9504 10.0317C7.2478 9.73428 7.74005 9.73428 8.03745 10.0317L9.88337 11.8777L14.129 7.64227C14.4264 7.33462 14.9187 7.33462 15.2161 7.64227C15.5135 7.93967 15.5135 8.42167 15.2161 8.72932Z" fill="#34C759"/>
</svg>
