<svg width="80" height="80" viewBox="0 0 80 80" fill="none" xmlns="http://www.w3.org/2000/svg">
<g clip-path="url(#clip0_1_2504)">
<mask id="mask0_1_2504" style="mask-type:luminance" maskUnits="userSpaceOnUse" x="0" y="0" width="80" height="80">
<path d="M78 78V2H2V78H78Z" fill="white" stroke="white" stroke-width="4"/>
</mask>
<g mask="url(#mask0_1_2504)">
<path d="M16.125 57.875C15.5036 57.875 15 58.3786 15 59C15 59.6214 15.5036 60.125 16.125 60.125C16.7464 60.125 17.25 59.6214 17.25 59C17.25 58.3786 16.7464 57.875 16.125 57.875Z" fill="#789D0E" stroke="#789D0E" stroke-width="4"/>
<path d="M16.125 39.4375C15.5036 39.4375 15 39.9411 15 40.5625C15 41.1839 15.5036 41.6875 16.125 41.6875C16.7464 41.6875 17.25 41.1839 17.25 40.5625C17.25 39.9411 16.7464 39.4375 16.125 39.4375Z" fill="#789D0E" stroke="#789D0E" stroke-width="4"/>
<path d="M16.125 21C15.5036 21 15 21.5036 15 22.125C15 22.7464 15.5036 23.25 16.125 23.25C16.7464 23.25 17.25 22.7464 17.25 22.125C17.25 21.5036 16.7464 21 16.125 21Z" fill="#789D0E" stroke="#789D0E" stroke-width="4"/>
<path d="M45.625 77H10.8814C6.52861 77 3 72.7884 3 67.5932V12.4068C3 7.21157 6.52861 3 10.8814 3H57.1186C61.4714 3 65 7.21157 65 12.4068V42.3517" stroke="#789D0E" stroke-width="4" stroke-miterlimit="10" stroke-linecap="round" stroke-linejoin="round"/>
<path d="M64.8438 76.6875C68.995 71.5319 79.6875 67.5314 79.6875 59.8762C79.6875 55.0005 76.3645 52 72.2656 52C65.3556 52 64.8438 58.5577 64.8438 58.5577C64.8438 58.5577 64.3319 52 57.4219 52C53.323 52 50 55.0005 50 59.8762C50 67.5314 60.6925 71.5319 64.8438 76.6875Z" fill="#789D0E"/>
<path d="M72.5 0L73.9001 4.09993L78 5.5L73.9001 6.90007L72.5 11L71.0999 6.90007L67 5.5L71.0999 4.09993L72.5 0Z" fill="#FAB222"/>
<path d="M25.3125 22.5625H56.3125" stroke="url(#paint0_linear_1_2504)" stroke-width="4" stroke-linecap="round"/>
<path d="M25.3125 40.5625H56.3125" stroke="url(#paint1_linear_1_2504)" stroke-width="4" stroke-linecap="round"/>
<path d="M25.3125 59.5625H35.3125" stroke="url(#paint2_linear_1_2504)" stroke-width="4" stroke-linecap="round"/>
</g>
</g>
<defs>
<linearGradient id="paint0_linear_1_2504" x1="56.3125" y1="23.4596" x2="55.4348" y2="17.8176" gradientUnits="userSpaceOnUse">
<stop offset="0.723066" stop-color="#FAB222"/>
</linearGradient>
<linearGradient id="paint1_linear_1_2504" x1="56.3125" y1="41.4596" x2="55.4348" y2="35.8176" gradientUnits="userSpaceOnUse">
<stop offset="0.723066" stop-color="#FAB222"/>
</linearGradient>
<linearGradient id="paint2_linear_1_2504" x1="35.3125" y1="60.4596" x2="33.0516" y2="55.7714" gradientUnits="userSpaceOnUse">
<stop offset="0.723066" stop-color="#FAB222"/>
</linearGradient>
<clipPath id="clip0_1_2504">
<rect width="80" height="80" fill="white"/>
</clipPath>
</defs>
</svg>
