<svg width="80" height="80" viewBox="0 0 80 80" fill="none" xmlns="http://www.w3.org/2000/svg">
<g clip-path="url(#clip0_1_2489)">
<path d="M58.177 80C57.617 80 57.0437 79.93 56.477 79.78L4.93371 65.9767C1.40038 65.0034 -0.70629 61.3434 0.220376 57.81L6.72371 33.57C6.96371 32.68 7.87704 32.1634 8.76371 32.39C9.65371 32.6267 10.1804 33.5434 9.94371 34.43L3.44371 58.6634C2.98038 60.43 4.04038 62.27 5.81038 62.76L57.3337 76.5567C59.1037 77.0234 60.9304 75.97 61.3904 74.21L63.9937 64.5634C64.2337 63.6734 65.147 63.1434 66.037 63.3867C66.927 63.6267 67.4504 64.5434 67.2137 65.43L64.6137 75.0634C63.8304 78.03 61.1304 80 58.177 80Z" fill="#789D0E"/>
<path d="M73.334 60H20.0007C16.324 60 13.334 57.01 13.334 53.3333V13.3333C13.334 9.65663 16.324 6.66663 20.0007 6.66663H73.334C77.0107 6.66663 80.0007 9.65663 80.0007 13.3333V53.3333C80.0007 57.01 77.0107 60 73.334 60ZM20.0007 9.99996C18.164 9.99996 16.6673 11.4966 16.6673 13.3333V53.3333C16.6673 55.17 18.164 56.6666 20.0007 56.6666H73.334C75.1707 56.6666 76.6673 55.17 76.6673 53.3333V13.3333C76.6673 11.4966 75.1707 9.99996 73.334 9.99996H20.0007Z" fill="#789D0E"/>
<path d="M30.0007 30C26.324 30 23.334 27.01 23.334 23.3333C23.334 19.6566 26.324 16.6666 30.0007 16.6666C33.6773 16.6666 36.6673 19.6566 36.6673 23.3333C36.6673 27.01 33.6773 30 30.0007 30ZM30.0007 20C28.164 20 26.6673 21.4966 26.6673 23.3333C26.6673 25.17 28.164 26.6666 30.0007 26.6666C31.8373 26.6666 33.334 25.17 33.334 23.3333C33.334 21.4966 31.8373 20 30.0007 20Z" fill="#FAB222"/>
<path d="M18.7999 57.1999C16.2399 57.1999 15.8666 55.8666 15.9999 55.1999L33.6 37.9999L42 45.1999L58 26.7999L77.6 47.1999C77.7333 49.3333 77.92 53.9199 77.6 55.1999C77.28 56.4799 76.4 57.0666 76 57.1999H18.7999Z" fill="#789D0E"/>
<path d="M15.2339 56.4333C14.8072 56.4333 14.3806 56.27 14.0539 55.9466C13.4039 55.2966 13.4039 54.24 14.0539 53.59L29.7972 37.8466C31.6839 35.96 34.9806 35.96 36.8672 37.8466L41.5539 42.5333L54.5272 26.9666C55.4706 25.8366 56.8572 25.18 58.3339 25.1666H58.3706C59.8306 25.1666 61.2139 25.8 62.1672 26.91L79.6006 47.25C80.2006 47.9466 80.1206 49 79.4206 49.6C78.7239 50.2 77.6739 50.1233 77.0706 49.42L59.6372 29.08C59.3139 28.7066 58.8672 28.5 58.3706 28.5C58.0239 28.47 57.4139 28.71 57.0906 29.1L42.9472 46.07C42.6472 46.43 42.2106 46.6466 41.7406 46.6666C41.2672 46.7 40.8172 46.5133 40.4872 46.18L34.5106 40.2033C33.8806 39.5766 32.7839 39.5766 32.1539 40.2033L16.4106 55.9466C16.0872 56.27 15.6606 56.4333 15.2339 56.4333Z" fill="#789D0E"/>
<path d="M6 16L7.78191 21.2181L13 23L7.78191 24.7819L6 30L4.21809 24.7819L-1 23L4.21809 21.2181L6 16Z" fill="#FAB222"/>
</g>
<defs>
<clipPath id="clip0_1_2489">
<rect width="80" height="80" fill="white"/>
</clipPath>
</defs>
</svg>
