<svg width="80" height="80" viewBox="0 0 80 80" fill="none" xmlns="http://www.w3.org/2000/svg">
<path d="M0 41H35H70M13.125 20V32M13.125 42.5V62M35 20V32M35 42V62M56.875 20V32M56.875 42.5V62M24.0625 56V62M24.0625 20V32M24.0625 42V50M45.9375 56V62M45.9375 20V32M45.9375 42.5V51.5M16.4062 11H8.20312C5.18287 11 2.73438 13.6864 2.73438 17V26M53.5938 71H61.7969C64.8171 71 67.2656 68.3136 67.2656 65V56M67.2656 26V17C67.2656 13.6864 64.8171 11 61.7969 11H53.5938M2.73438 56V65C2.73438 68.3136 5.18287 71 8.20312 71H16.4062" stroke="#789D0E" stroke-width="4" stroke-miterlimit="10"/>
<path fill-rule="evenodd" clip-rule="evenodd" d="M70 43H0V38H70V43Z" fill="url(#paint0_linear_1_2480)"/>
<path d="M74.5 29L75.6455 32.3545L79 33.5L75.6455 34.6455L74.5 38L73.3545 34.6455L70 33.5L73.3545 32.3545L74.5 29Z" fill="#FAB222"/>
<defs>
<linearGradient id="paint0_linear_1_2480" x1="70.5" y1="40.5" x2="70.0219" y2="34.7142" gradientUnits="userSpaceOnUse">
<stop offset="0.928797" stop-color="#FAB222"/>
</linearGradient>
</defs>
</svg>
