<svg width="45" height="45" viewBox="0 0 45 45" fill="none" xmlns="http://www.w3.org/2000/svg">
<path d="M38.5128 18.871C37.7539 18.871 37.138 19.4869 37.138 20.2458V24.2583L29.7873 16.9094C28.5774 15.6978 26.4511 15.6978 25.2413 16.9094L16.5158 25.6331L15.1226 24.2418C13.9128 23.0301 11.7864 23.0301 10.5766 24.2418L6.89205 27.9263V12.9134C6.89205 10.0226 8.12572 8.78898 11.0165 8.78898H25.6812C26.4401 8.78898 27.056 8.17306 27.056 7.41417C27.056 6.65527 26.4401 6.03935 25.6812 6.03935H11.0165C6.5841 6.03935 4.14243 8.48102 4.14243 12.9134V31.2443C4.14243 35.6767 6.5841 38.1184 11.0165 38.1184H33.0135C37.4459 38.1184 39.8876 35.6767 39.8876 31.2443V20.2458C39.8876 19.4869 39.2717 18.871 38.5128 18.871ZM33.0135 35.3687H11.0165C8.3182 35.3687 7.07897 34.2762 6.92316 31.7813L12.5195 26.185C12.7523 25.954 12.9448 25.954 13.1776 26.185L14.8991 27.9062C15.7551 28.764 17.2747 28.7622 18.1271 27.9062L27.1824 18.8508C27.4152 18.6198 27.6077 18.6198 27.8405 18.8508L37.1344 28.1447V31.2443C37.1381 34.1351 35.9043 35.3687 33.0135 35.3687ZM32.0419 9.3023C31.5049 8.7652 31.5049 7.89442 32.0419 7.35733L34.7916 4.6077C34.9181 4.48122 35.0702 4.3802 35.2389 4.31054C35.5743 4.17123 35.9538 4.17123 36.2892 4.31054C36.4579 4.3802 36.6101 4.48122 36.7365 4.6077L39.4862 7.35733C40.0233 7.89442 40.0233 8.7652 39.4862 9.3023C39.2185 9.56993 38.8665 9.70552 38.5146 9.70552C38.1626 9.70552 37.8106 9.57176 37.543 9.3023L37.1398 8.89907V12.9134C37.1398 13.6723 36.5239 14.2882 35.765 14.2882C35.0061 14.2882 34.3901 13.6723 34.3901 12.9134V8.90086L33.9869 9.30409C33.448 9.83935 32.579 9.83939 32.0419 9.3023ZM14.6827 14.2882C15.9475 14.2882 16.974 15.3148 16.974 16.5796C16.974 17.8444 15.9475 18.871 14.6827 18.871C13.4178 18.871 12.3913 17.8444 12.3913 16.5796C12.3913 15.3148 13.4178 14.2882 14.6827 14.2882Z" fill="#789D0E"/>
</svg>
