<svg width="249" height="224" viewBox="0 0 249 224" fill="none" xmlns="http://www.w3.org/2000/svg">
<path d="M288.081 205.385L220.243 137.541C231.769 119.191 238.459 97.5028 238.459 74.2268C238.459 8.37582 185.075 -45 119.227 -45C53.3783 -45 0 8.37582 0 74.2268C0 140.08 53.3758 193.451 119.227 193.451C144.557 193.451 168.019 185.532 187.326 172.075L254.357 239.111C259.014 243.764 265.12 246.082 271.219 246.082C277.325 246.082 283.423 243.764 288.088 239.111C297.396 229.793 297.396 214.7 288.081 205.385ZM119.227 154.823C74.7192 154.823 38.6352 118.742 38.6352 74.2317C38.6352 29.7217 74.7192 -6.36234 119.227 -6.36234C163.737 -6.36234 199.818 29.7217 199.818 74.2317C199.818 118.742 163.737 154.823 119.227 154.823Z" fill="white" fill-opacity="0.1"/>
</svg>
