<svg width="259" height="224" viewBox="0 0 259 224" fill="none" xmlns="http://www.w3.org/2000/svg">
<path d="M250.164 71.755L191.536 7.93588C186.698 2.67007 181.791 0 176.952 0C170.308 0 162.549 5.50093 162.549 21.0049V42.7316C119.954 44.7525 80.1757 63.7679 49.8363 96.7917C17.702 131.769 0.00303516 178.273 0 227.74C0 231.294 2.08819 234.45 5.18506 235.575C5.97572 235.862 6.78509 236 7.58688 236C9.92749 236 12.1932 234.818 13.6542 232.701C49.4786 180.794 103.413 150.118 162.549 147.697V169.089C162.549 184.592 170.308 190.094 176.952 190.094H176.953C181.792 190.094 186.699 187.424 191.536 182.159L250.164 118.338C255.862 112.138 259 103.866 259 95.0467C259 86.2292 255.862 77.9569 250.164 71.755Z" fill="white" fill-opacity="0.1"/>
</svg>
